<?xml version="1.0" encoding="UTF-8"?>
<!DOCTYPE svg PUBLIC "-//W3C//DTD SVG 1.1//EN" "http://www.w3.org/Graphics/SVG/1.1/DTD/svg11.dtd">
<!-- Creator: CorelDRAW 2018 (64-Bit) -->
<svg xmlns="http://www.w3.org/2000/svg" xml:space="preserve" width="22.6682mm" height="34.0147mm" version="1.1" style="shape-rendering:geometricPrecision; text-rendering:geometricPrecision; image-rendering:optimizeQuality; fill-rule:evenodd; clip-rule:evenodd"
viewBox="0 0 148.38 222.65"
 xmlns:xlink="http://www.w3.org/1999/xlink">
 <defs>
  <style type="text/css">
   <![CDATA[
    .fil0 {fill:black}
   ]]>
  </style>
 </defs>
 <g id="Слой_x0020_1">
  <metadata id="CorelCorpID_0Corel-Layer"/>
  <g id="_345181118736">
   <g>
    <g>
     <path class="fil0" d="M86.9 49.87l-74.24 0c-6.98,0 -12.65,5.68 -12.65,12.65l0 147.47c0,6.98 5.68,12.65 12.65,12.65l74.24 -0c6.98,0 12.65,-5.68 12.65,-12.65l0 -147.47c0,-6.98 -5.68,-12.65 -12.65,-12.65zm7.59 137.35l-71.71 0c-1.4,0 -2.53,1.13 -2.53,2.53 0,1.4 1.13,2.53 2.53,2.53l71.71 0 0 17.72c0,4.19 -3.41,7.59 -7.59,7.59l-74.24 0c-4.19,0 -7.59,-3.41 -7.59,-7.59l0 -17.72 7.59 0c1.4,0 2.53,-1.13 2.53,-2.53 0,-1.4 -1.13,-2.53 -2.53,-2.53l-7.59 0 0 -112.04 89.43 0 0 112.04zm0 -117.1l-89.43 0 0 -7.59c0,-4.19 3.41,-7.59 7.59,-7.59l74.24 0c4.19,0 7.59,3.41 7.59,7.59l0 7.59z"/>
    </g>
   </g>
   <g>
    <g>
     <path class="fil0" d="M59.9 60l-10.12 0c-1.4,0 -2.53,1.13 -2.53,2.53 0,1.4 1.13,2.53 2.53,2.53l10.12 -0c1.4,0 2.53,-1.13 2.53,-2.53 0,-1.4 -1.13,-2.53 -2.53,-2.53z"/>
    </g>
   </g>
   <g>
    <g>
     <path class="fil0" d="M49.78 197.34c-4.19,0 -7.59,3.41 -7.59,7.59 0,4.19 3.41,7.59 7.59,7.59 4.19,0 7.59,-3.41 7.59,-7.59 0,-4.19 -3.41,-7.59 -7.59,-7.59zm0 10.12c-1.4,0 -2.53,-1.14 -2.53,-2.53 0,-1.4 1.14,-2.53 2.53,-2.53 1.4,0 2.53,1.14 2.53,2.53 0,1.4 -1.14,2.53 -2.53,2.53z"/>
    </g>
   </g>
   <g>
    <g>
     <circle class="fil0" cx="39.65" cy="62.53" r="2.53"/>
    </g>
   </g>
   <g>
   </g>
   <g>
   </g>
   <g>
   </g>
   <g>
   </g>
   <g>
   </g>
   <g>
   </g>
   <g>
   </g>
   <g>
   </g>
   <g>
   </g>
   <g>
   </g>
   <g>
   </g>
   <g>
   </g>
   <g>
   </g>
   <g>
   </g>
   <g>
   </g>
  </g>
  <path class="fil0" d="M148.34 56.3c-1.2,-7.04 -3.46,-13.76 -6.69,-19.99 -3.23,-6.22 -7.43,-11.96 -12.52,-17.06 -5.09,-5.09 -10.84,-9.3 -17.06,-12.52 -6.23,-3.23 -12.95,-5.49 -19.99,-6.69l-0 0c-0.73,-0.13 -1.43,0.05 -1.99,0.45 -0.57,0.4 -0.98,1.03 -1.12,1.77l-0 -0c-0.12,0.74 0.07,1.46 0.47,2.03 0.4,0.56 1.02,0.98 1.77,1.11l0 0c6.46,1.1 12.63,3.17 18.36,6.14 5.75,2.98 11.04,6.85 15.74,11.53l0 0c4.68,4.68 8.55,9.98 11.53,15.72 2.98,5.74 5.05,11.93 6.15,18.4 0.11,0.66 0.44,1.22 0.91,1.61 0.48,0.4 1.1,0.64 1.76,0.64 0.16,0 0.3,-0.02 0.44,-0.04l0.04 -0.01 -0 -0c0.09,-0.01 0.02,0 0.07,-0.01l0 -0c0.69,-0.12 1.28,-0.52 1.66,-1.06 0.39,-0.54 0.57,-1.23 0.47,-1.93l-0.01 -0.08zm-58.22 -27.44c3.67,0.62 7.18,1.79 10.43,3.48 3.27,1.7 6.28,3.9 8.95,6.57 2.66,2.66 4.86,5.66 6.55,8.92 1.69,3.26 2.87,6.78 3.51,10.46l0 0c0.11,0.66 0.44,1.21 0.91,1.61 0.48,0.4 1.1,0.64 1.76,0.64 0.16,0 0.3,-0.02 0.44,-0.03l0 -0 0.07 -0.01 0 0c0.72,-0.13 1.32,-0.53 1.72,-1.09 0.41,-0.57 0.59,-1.3 0.47,-2.05l-0 0c-0.72,-4.23 -2.08,-8.27 -4.02,-12.02 -1.94,-3.75 -4.47,-7.2 -7.54,-10.27 -3.06,-3.06 -6.52,-5.59 -10.27,-7.54 -3.75,-1.94 -7.79,-3.3 -12.02,-4.02l0 -0c-0.75,-0.12 -1.47,0.07 -2.03,0.47 -0.57,0.4 -0.98,1.01 -1.11,1.75l-0 -0 -0.01 0.05 -0 -0c-0.12,0.72 0.06,1.43 0.45,1.99 0.38,0.55 0.97,0.96 1.69,1.09l0.05 0.01z"/>
 </g>
</svg>
