<?xml version="1.0" encoding="UTF-8"?>
<!DOCTYPE svg PUBLIC "-//W3C//DTD SVG 1.1//EN" "http://www.w3.org/Graphics/SVG/1.1/DTD/svg11.dtd">
<!-- Creator: CorelDRAW 2018 (64-Bit) -->
<svg xmlns="http://www.w3.org/2000/svg" xml:space="preserve" width="31.1766mm" height="26.8941mm" version="1.1" style="shape-rendering:geometricPrecision; text-rendering:geometricPrecision; image-rendering:optimizeQuality; fill-rule:evenodd; clip-rule:evenodd"
viewBox="0 0 376.16 324.49"
 xmlns:xlink="http://www.w3.org/1999/xlink">
 <defs>
  <style type="text/css">
   <![CDATA[
    .fil1 {fill:black}
    .fil0 {fill:black;fill-rule:nonzero}
   ]]>
  </style>
 </defs>
 <g id="Слой_x0020_1">
  <metadata id="CorelCorpID_0Corel-Layer"/>
  <path class="fil0" d="M212.91 114.76l-19.06 0 0 8.85 19.06 0 0 -8.85zm-138.76 -20.21l-34.66 4.95c-1.09,0.16 -2.04,0.7 -2.72,1.48 -0.68,0.78 -1.08,1.8 -1.08,2.9l0 41.33 -0 0c-0.01,3.83 1.15,7.47 3.2,10.51 2.05,3.03 5,5.46 8.56,6.87l16.53 6.63c0.26,0.1 0.53,0.18 0.81,0.24 0.27,0.05 0.55,0.08 0.84,0.08l2.31 0 0.16 0.45c1.5,4.27 3.93,8.09 7.06,11.22 3.13,3.13 6.95,5.56 11.22,7.06 7.77,2.73 15.92,2.04 22.8,-1.27 6.88,-3.31 12.49,-9.24 15.22,-17.01l0.15 -0.45 137.27 0 0.16 0.45c1.5,4.27 3.93,8.09 7.06,11.22 3.13,3.13 6.95,5.56 11.22,7.06 7.77,2.72 15.92,2.04 22.8,-1.27 6.88,-3.31 12.49,-9.24 15.22,-17.01l0.16 -0.45 17.61 0c1.22,0 2.33,-0.5 3.13,-1.3 0.8,-0.8 1.3,-1.91 1.3,-3.13l0 -30.29 0 0c-0.01,-4.04 -1.09,-7.93 -3.06,-11.32 -1.96,-3.38 -4.8,-6.25 -8.31,-8.27 -8.84,-5.04 -18.26,-8.92 -28,-11.56 -9.75,-2.64 -19.83,-4.06 -30,-4.17l-0.17 -0 -17.64 -9.62c-12.65,-6.89 -26.07,-12.14 -39.93,-15.68 -13.86,-3.54 -28.16,-5.35 -42.56,-5.36l0 0 -6.02 0 0 -0c-12.2,-0.01 -24.35,1.28 -36.22,3.84 -11.87,2.56 -23.46,6.37 -34.58,11.41 -3.37,1.52 -6.69,3.15 -9.95,4.87 -3.26,1.73 -6.47,3.56 -9.62,5.49l-0.12 0.07 -0.14 0.02zm204.35 83.04c-4.5,-2.97 -7.87,-7.67 -9.03,-13.37 -0.14,-0.7 -0.25,-1.4 -0.32,-2.1 -0.07,-0.72 -0.11,-1.42 -0.11,-2.12l0 0c-0,-5.01 1.76,-9.67 4.75,-13.33 2.99,-3.66 7.21,-6.32 12.11,-7.32 5.7,-1.17 11.34,0.09 15.84,3.06 4.5,2.97 7.87,7.66 9.03,13.37 1.17,5.7 -0.09,11.34 -3.06,15.84 -2.97,4.5 -7.67,7.87 -13.37,9.03 -5.7,1.17 -11.34,-0.09 -15.84,-3.06zm-18.99 -16.91l-82.31 0c-0,-17.46 0,-34.91 0,-52.37l92.51 0 0 0c9.65,0 19.21,1.26 28.44,3.72 9.24,2.45 18.17,6.1 26.54,10.89l0 0c2.13,1.22 3.86,2.97 5.05,5.02 1.19,2.05 1.85,4.42 1.85,6.87l0 0 0 25.87 -11.55 0 0 -0.67c0,-8.27 -3.35,-15.75 -8.77,-21.17 -5.42,-5.42 -12.9,-8.77 -21.17,-8.77 -8.27,0 -15.75,3.35 -21.17,8.77 -5.42,5.42 -8.77,12.9 -8.77,21.17l0 0.67 -0.68 0zm-9.81 -61.22l-72.5 0 0 -21.56 0.7 0.03c12.45,0.54 24.76,2.5 36.69,5.8 11.93,3.31 23.49,7.97 34.44,13.92l3.3 1.8 -2.64 0zm-84.92 -21.76l0 -0 3.56 0 0 21.76 -54.96 0 -9.83 -9.83 0.95 -0.38c9.59,-3.83 19.5,-6.72 29.59,-8.65 10.09,-1.93 20.36,-2.91 30.69,-2.9zm-80.16 99.89c-4.5,-2.97 -7.87,-7.67 -9.03,-13.37 -0.14,-0.7 -0.25,-1.4 -0.32,-2.1 -0.07,-0.71 -0.11,-1.42 -0.11,-2.11l0 0c-0,-5.01 1.76,-9.67 4.75,-13.33 2.99,-3.66 7.2,-6.32 12.11,-7.32 5.7,-1.17 11.34,0.09 15.84,3.06 4.5,2.97 7.87,7.66 9.03,13.37 1.17,5.7 -0.09,11.34 -3.06,15.84 -2.97,4.5 -7.67,7.87 -13.37,9.03 -5.7,1.17 -11.34,-0.09 -15.84,-3.06zm-24.77 -62.83l-15.31 0 0 -7.04 31.92 -4.56c0.31,-0.04 0.61,-0.12 0.89,-0.23 0.28,-0.1 0.56,-0.24 0.83,-0.4 2.61,-1.62 5.27,-3.18 8,-4.67 2.73,-1.49 5.48,-2.9 8.24,-4.21l0.43 -0.21c1.22,1.22 13.57,13.56 13.57,13.57 0.41,0.41 0.9,0.74 1.43,0.96 0.53,0.22 1.11,0.34 1.69,0.34l56.8 0 0 52.36 -42.18 0 -0 -0.68c-0.01,-8.26 -3.36,-15.74 -8.78,-21.16 -5.42,-5.42 -12.9,-8.77 -21.16,-8.78l0 0c-0.55,0 -1.06,0.01 -1.54,0.04 -0.51,0.03 -1.01,0.07 -1.51,0.11l-0.01 0c-0.17,0.02 -0.39,0.05 -0.6,0.09 -0.14,0.02 -0.28,0.05 -0.48,0.07 -0.07,0.01 -0.31,0.04 -0.55,0.08 -0.45,0.06 -0.9,0.12 -1.32,0.21 -0.21,0.04 -0.41,0.1 -0.62,0.16 -0.19,0.05 -0.38,0.1 -0.52,0.14l-0.47 0.11c-0.42,0.1 -0.83,0.2 -1.25,0.33 -0.26,0.08 -0.48,0.17 -0.73,0.26l-0 0c-0.15,0.06 -0.31,0.12 -0.52,0.19l-0.44 0.16c-0.37,0.13 -0.75,0.26 -1.05,0.39l-0 0c-0.25,0.11 -0.51,0.23 -0.78,0.37l-0.46 0.23 -0 -0 -0.42 0.2c-0.33,0.16 -0.67,0.31 -0.95,0.46l-0 0c-0.21,0.11 -0.39,0.21 -0.56,0.32 -0.17,0.1 -0.37,0.23 -0.59,0.38 -0.2,0.13 -0.45,0.28 -0.69,0.42 -0.21,0.12 -0.41,0.24 -0.61,0.37 -0.26,0.18 -0.54,0.39 -0.82,0.6l-0.33 0.25c-0.09,0.07 -0.25,0.18 -0.41,0.3l0 0c-0.25,0.18 -0.51,0.36 -0.73,0.55 -0.22,0.19 -0.44,0.4 -0.66,0.6 -0.13,0.12 -0.25,0.24 -0.45,0.41 -0.04,0.04 -0.18,0.16 -0.32,0.28 -0.23,0.2 -0.47,0.41 -0.7,0.64 -0.15,0.15 -0.33,0.36 -0.51,0.56 -0.17,0.19 -0.33,0.37 -0.51,0.56l-0.03 0.03c-0.3,0.31 -0.59,0.6 -0.89,0.95 -0.23,0.28 -0.49,0.63 -0.73,0.95l-0.17 0.23c-0.13,0.17 -0.22,0.29 -0.31,0.41 -0.18,0.23 -0.36,0.47 -0.52,0.7l0 0c-0.14,0.21 -0.27,0.4 -0.38,0.57 -0.14,0.22 -0.27,0.45 -0.39,0.66l-0 0.01c-0.13,0.23 -0.24,0.4 -0.35,0.58 -0.13,0.21 -0.27,0.42 -0.38,0.63 -0.14,0.26 -0.29,0.56 -0.43,0.86l-0.22 0.46c-0.07,0.14 -0.14,0.27 -0.2,0.4 -0.15,0.29 -0.3,0.58 -0.41,0.86 -0.08,0.21 -0.18,0.48 -0.27,0.75 -0.07,0.21 -0.15,0.41 -0.23,0.64l-0.15 0.41c-0.13,0.34 -0.26,0.67 -0.35,0.95l0 0c-0.09,0.27 -0.16,0.57 -0.24,0.86l0 0c-0.04,0.15 -0.07,0.3 -0.15,0.56l-0.08 0.3c-0.1,0.37 -0.21,0.76 -0.29,1.13 -0.07,0.3 -0.11,0.62 -0.16,0.95l-0.08 0.5 -0.07 0.45c-0.06,0.36 -0.12,0.72 -0.16,1.04 -0.03,0.3 -0.04,0.63 -0.06,0.94 -0.01,0.21 -0.02,0.41 -0.03,0.56l0 0c-0.01,0.21 -0.03,0.34 -0.04,0.47 -0.03,0.3 -0.05,0.6 -0.05,0.89l0 1 -15.56 -6.25c-1.87,-0.74 -3.43,-2.02 -4.51,-3.62 -1.08,-1.6 -1.69,-3.51 -1.69,-5.53l-0 0 0 -21.59 15.31 0 0 -8.85z"/>
  <path class="fil1" d="M349.37 0l-322.59 0c-7.38,0 -14.08,3 -18.93,7.85 -4.85,4.85 -7.85,11.55 -7.85,18.93l0 211.86c0,7.38 3,14.08 7.85,18.93 4.85,4.85 11.55,7.85 18.93,7.85l122.14 0 -7.95 31.81c-1.22,4.88 -4.46,9.38 -8.65,12.65 -4.19,3.27 -9.33,5.32 -14.37,5.32l-44.29 0c-1.28,0 -2.44,0.52 -3.28,1.36 -0.84,0.84 -1.36,2 -1.36,3.28 0,1.28 0.52,2.44 1.36,3.28 0.84,0.84 2,1.36 3.28,1.36l0 0 228.84 0 0 -0c1.28,0 2.44,-0.52 3.28,-1.36 0.84,-0.84 1.36,-2 1.36,-3.28 0,-1.28 -0.52,-2.44 -1.36,-3.28 -0.84,-0.84 -2,-1.36 -3.28,-1.36l0 -0 -44.29 0 0 0c-5.03,0 -10.18,-2.05 -14.37,-5.32 -4.19,-3.27 -7.43,-7.77 -8.65,-12.65l-7.95 -31.81 122.14 0c7.38,0 14.08,-3 18.93,-7.85 4.85,-4.85 7.85,-11.55 7.85,-18.93l0 -211.86c0,-7.38 -3,-14.08 -7.85,-18.93 -4.85,-4.85 -11.55,-7.85 -18.93,-7.85zm-156.66 238.65c0,-1.28 -0.52,-2.44 -1.36,-3.28 -0.84,-0.84 -2,-1.36 -3.28,-1.36 -1.28,0 -2.44,0.52 -3.28,1.36 -0.84,0.84 -1.36,2 -1.36,3.28 0,1.28 0.52,2.44 1.36,3.28 0.84,0.84 2,1.36 3.28,1.36 1.28,0 2.44,-0.52 3.28,-1.36 0.84,-0.84 1.36,-2 1.36,-3.28zm-165.93 -229.37l322.59 0c3.75,0 7.23,1.19 10.08,3.2 2.93,2.07 5.2,5.03 6.42,8.47l0.42 1.2c-118.82,0 -237.63,-0.02 -356.45,0l0.42 -1.2c1.22,-3.44 3.49,-6.4 6.42,-8.47 2.85,-2.02 6.33,-3.2 10.08,-3.2zm206.76 305.94l-93.02 0 1.45 -1.52c1.94,-2.04 3.64,-4.3 5.01,-6.74 1.32,-2.35 2.35,-4.86 3,-7.47l8.51 -34.06 59.19 0 8.51 34.06c0.65,2.61 1.67,5.12 3,7.46 1.37,2.43 3.06,4.7 5.01,6.74l1.45 1.52 -2.1 0zm132.44 -104.46l-317.06 0c-1.28,0 -2.44,0.52 -3.28,1.36 -0.84,0.84 -1.36,2 -1.36,3.28 0,1.28 0.52,2.44 1.36,3.28 0.84,0.84 2,1.36 3.28,1.36l0 0 317.96 0 0 18.61c0,4.83 -1.96,9.2 -5.13,12.38 -3.17,3.17 -7.55,5.13 -12.38,5.13l-322.59 0c-4.83,0 -9.2,-1.96 -12.38,-5.13 -3.17,-3.17 -5.13,-7.55 -5.13,-12.38l0 -18.62 17.51 0c1.28,0 2.44,-0.52 3.28,-1.36 0.84,-0.84 1.36,-2 1.36,-3.28 0,-1.28 -0.52,-2.44 -1.36,-3.28 -0.84,-0.84 -2,-1.36 -3.28,-1.36l0 -0 -17.51 0 0 -179.33 357.61 0 0 179.34 -0.9 0z"/>
 </g>
</svg>
