<?xml version="1.0" encoding="UTF-8"?>
<!DOCTYPE svg PUBLIC "-//W3C//DTD SVG 1.1//EN" "http://www.w3.org/Graphics/SVG/1.1/DTD/svg11.dtd">
<!-- Creator: CorelDRAW 2018 (64-Bit) -->
<svg xmlns="http://www.w3.org/2000/svg" xml:space="preserve" width="48.1412mm" height="19.4969mm" version="1.1" style="shape-rendering:geometricPrecision; text-rendering:geometricPrecision; image-rendering:optimizeQuality; fill-rule:evenodd; clip-rule:evenodd"
viewBox="0 0 8733.5 3537.02"
 xmlns:xlink="http://www.w3.org/1999/xlink">
 <defs>
  <style type="text/css">
   <![CDATA[
    .fil0 {fill:black;fill-rule:nonzero}
   ]]>
  </style>
 </defs>
 <g id="Слой_x0020_1">
  <metadata id="CorelCorpID_0Corel-Layer"/>
  <path class="fil0" d="M253.58 2084.05c-2.01,1.02 -4.1,2.25 -6.22,3.66l-0.05 0c-2.01,1.34 -3.97,2.83 -5.88,4.44 -1.98,1.67 -3.76,3.36 -5.33,5.04 -1.56,1.67 -3.12,3.56 -4.64,5.62l-219.96 298.99 -0.45 0.45c-0.56,0.82 -1.18,1.76 -1.81,2.79l-1.32 2.23 -0.78 1.49c-0.69,1.31 -1.42,2.87 -2.2,4.66 -0.69,1.6 -1.29,3.16 -1.8,4.66 -0.49,1.47 -0.98,3.12 -1.43,4.93 -0.42,1.72 -0.78,3.39 -1.05,5.01l-0.42 2.65 -0.22 1.76 0 302.13c0,4.37 0.42,8.58 1.22,12.61 0.82,4.21 2.01,8.18 3.56,11.88 1.56,3.79 3.54,7.44 5.84,10.88 2.29,3.37 4.99,6.64 8.07,9.72 3.08,3.08 6.33,5.79 9.72,8.05 3.39,2.29 7.06,4.26 10.92,5.86 3.66,1.54 7.64,2.74 11.85,3.56 4.01,0.78 8.22,1.2 12.61,1.2l10.14 0 0 0.13 1257.22 -0.02 7.31 76.54c4.06,42.47 11.74,83.89 22.71,123.91 11.19,40.8 25.85,80.24 43.65,117.99 18.01,38.19 39.28,74.62 63.42,108.88 24.27,34.49 51.52,66.85 81.38,96.71 59.45,59.43 128.91,108.63 205.62,144.8 37.73,17.8 77.17,32.47 117.97,43.65 40.02,10.98 81.44,18.65 123.91,22.71 48.75,4.66 96.84,4.43 143.77,-0.27 48.17,-4.84 95.1,-14.4 140.29,-28.25 45.99,-14.08 90.27,-32.67 132.29,-55.31 42.41,-22.86 82.42,-49.78 119.39,-80.29 36.9,-30.46 70.84,-64.57 101.27,-101.83 30.04,-36.81 56.69,-76.81 79.37,-119.53 22.19,-41.78 40.47,-86.04 54.33,-132.31 13.53,-45.21 22.88,-92.3 27.52,-140.87l7.33 -76.65 1797.05 0 0 232.97c0,4.37 0.42,8.6 1.2,12.61 0.83,4.19 2.03,8.16 3.56,11.85 1.61,3.86 3.57,7.51 5.86,10.92 2.29,3.37 4.99,6.64 8.07,9.72 3.08,3.08 6.33,5.79 9.72,8.05 3.39,2.29 7.06,4.26 10.92,5.86 3.66,1.54 7.64,2.74 11.85,3.56 4.01,0.78 8.24,1.2 12.61,1.2l1632.17 0c4.37,0 8.6,-0.42 12.61,-1.2 4.21,-0.82 8.18,-2.01 11.86,-3.54 3.86,-1.61 7.51,-3.59 10.9,-5.88 3.39,-2.27 6.64,-4.97 9.72,-8.05 3.08,-3.08 5.79,-6.35 8.07,-9.72 2.29,-3.41 4.25,-7.06 5.86,-10.92 1.52,-3.68 2.72,-7.66 3.56,-11.85 0.78,-4.01 1.2,-8.24 1.2,-12.61l0 -232.97 461.61 0 7.35 76.65c4.06,42.49 11.74,83.89 22.73,123.92 11.19,40.78 25.85,80.24 43.67,117.97 18.01,38.21 39.26,74.63 63.4,108.9 24.27,34.49 51.54,66.83 81.4,96.71 59.43,59.41 128.89,108.63 205.58,144.79 37.75,17.8 77.19,32.47 117.97,43.65 40,10.98 81.42,18.65 123.91,22.71l0.05 0c48.73,4.66 96.82,4.43 143.75,-0.29 48.17,-4.83 95.1,-14.39 140.27,-28.23 46.01,-14.1 90.29,-32.69 132.29,-55.33 42.41,-22.84 82.42,-49.76 119.39,-80.28 36.9,-30.46 70.84,-64.57 101.27,-101.83 30.06,-36.81 56.71,-76.83 79.39,-119.53 22.19,-41.78 40.47,-86.04 54.33,-132.31 13.46,-44.95 22.77,-91.78 27.45,-140.05l0 -0.58 0.07 -0.71c1.71,-15.28 4.59,-31.37 7.46,-47.28 1.12,-6.22 2.23,-12.37 3.57,-20.41l1.42 -8.49 371.9 0c4.44,0 8.73,-0.42 12.77,-1.2 4.19,-0.82 8.18,-2.01 11.92,-3.56 3.88,-1.6 7.56,-3.57 11.01,-5.88 3.48,-2.34 6.77,-5.03 9.76,-8.02 2.94,-2.98 5.57,-6.17 7.82,-9.56l0 -0.04c2.34,-3.5 4.3,-7.17 5.84,-10.92 1.52,-3.7 2.72,-7.67 3.52,-11.86 0.78,-4.03 1.2,-8.29 1.2,-12.74l0 -1474.72c0,-2.61 -0.05,-4.84 -0.16,-6.73 -0.11,-1.98 -0.31,-4.06 -0.56,-6.28 -0.31,-2.52 -0.6,-4.57 -0.89,-6.19 -0.34,-1.94 -0.74,-3.72 -1.16,-5.35 -0.36,-1.45 -0.89,-3.17 -1.54,-5.19 -0.65,-2 -1.29,-3.79 -1.92,-5.35 -0.62,-1.6 -1.34,-3.27 -2.16,-4.99 -0.6,-1.27 -1.47,-3.01 -2.61,-5.17l-740.59 -1184.85c-1.49,-2.41 -3.07,-4.63 -4.72,-6.64 -1.69,-2.07 -3.52,-4.05 -5.46,-5.9 -1.96,-1.87 -4.03,-3.59 -6.2,-5.19 -2.29,-1.69 -4.54,-3.14 -6.71,-4.35l-0.05 0c-2.12,-1.18 -4.44,-2.27 -6.95,-3.25 -2.38,-0.93 -4.97,-1.74 -7.73,-2.45l0 -0.04c-2.38,-0.62 -5.03,-1.11 -7.95,-1.45 -2.7,-0.34 -5.5,-0.51 -8.36,-0.51l-1632.11 0c-4.37,0 -8.58,0.42 -12.61,1.2 -4.19,0.82 -8.16,2.01 -11.85,3.54 -3.86,1.61 -7.51,3.59 -10.92,5.88 -3.37,2.27 -6.64,4.97 -9.72,8.05 -3.08,3.08 -5.79,6.35 -8.05,9.72 -2.29,3.41 -4.26,7.06 -5.86,10.92 -1.54,3.68 -2.74,7.66 -3.56,11.85 -0.78,4.03 -1.2,8.24 -1.2,12.61l0 2013.5 -5955.74 0c-1.18,0.13 -2.45,0.31 -3.83,0.53 -1.63,0.27 -3.19,0.6 -4.66,0.96 -2.38,0.58 -4.73,1.31 -7.06,2.18 -2.29,0.85 -4.64,1.9 -7.04,3.12zm6147.52 120.82l721.16 0 -60.77 53.28c-13.81,12.1 -27.07,24.35 -39.78,36.74 -12.77,12.46 -24.82,24.89 -36.14,37.24l0.02 0.02 -3.08 3.39c-16.04,17.65 -30.88,35.5 -44.61,53.55 -13.61,17.89 -26.25,36.19 -37.95,54.88 -20.08,32.11 -37.01,64.96 -51.01,98.65 -13.99,33.65 -25.11,68.21 -33.54,103.79l-5.55 23.42 -439.17 0 0 -464.96 30.44 0zm1017.77 603.91c0,9.32 0.91,18.4 2.61,27.1 1.78,9.02 4.41,17.63 7.76,25.76 3.45,8.31 7.73,16.25 12.72,23.69 5.04,7.53 10.85,14.57 17.29,20.99l0.04 0c6.51,6.53 13.55,12.34 20.99,17.33 7.46,5.01 15.4,9.27 23.71,12.72 8.13,3.37 16.74,5.99 25.76,7.76 8.71,1.71 17.78,2.61 27.1,2.61 9.36,0 18.47,-0.91 27.21,-2.61 9.05,-1.78 17.71,-4.39 25.85,-7.76 8.33,-3.45 16.29,-7.71 23.75,-12.72 7.53,-5.04 14.59,-10.85 21.04,-17.31l2.87 -2.87c5.26,-5.57 10.05,-11.59 14.33,-17.98 4.95,-7.42 9.2,-15.38 12.66,-23.75 3.34,-8.13 5.95,-16.74 7.71,-25.78 1.72,-8.73 2.61,-17.81 2.61,-27.19 0,-9.32 -0.91,-18.4 -2.61,-27.12 -1.78,-9.02 -4.41,-17.63 -7.76,-25.78 -3.45,-8.31 -7.73,-16.24 -12.72,-23.69 -5.01,-7.46 -10.83,-14.5 -17.34,-21.01 -6.51,-6.53 -13.55,-12.34 -21.01,-17.34 -7.4,-4.97 -15.37,-9.23 -23.75,-12.72 -8.11,-3.37 -16.73,-5.99 -25.74,-7.76 -8.71,-1.71 -17.78,-2.61 -27.1,-2.61 -9.36,0 -18.45,0.89 -27.18,2.59 -9.03,1.78 -17.67,4.39 -25.78,7.73 -8.33,3.45 -16.25,7.69 -23.69,12.66 -7.42,4.97 -14.44,10.76 -20.92,17.23l-3.36 3.36c-5.12,5.5 -9.8,11.37 -13.95,17.6 -4.99,7.47 -9.27,15.46 -12.74,23.82 -3.36,8.15 -5.97,16.8 -7.75,25.85 -1.72,8.73 -2.63,17.83 -2.63,27.19zm-5489.94 0c0,9.32 0.91,18.4 2.61,27.1 1.78,9.02 4.39,17.65 7.76,25.78 3.45,8.31 7.71,16.24 12.72,23.69 5.04,7.53 10.83,14.55 17.27,20.99l0.04 0c12.75,12.75 27.94,23.02 44.75,29.99 16.22,6.71 34.07,10.41 52.83,10.41 9.36,0 18.47,-0.91 27.21,-2.61 9.05,-1.78 17.69,-4.39 25.83,-7.76 8.35,-3.45 16.31,-7.71 23.77,-12.72 7.53,-5.04 14.59,-10.85 21.04,-17.31l2.87 -2.87c5.26,-5.57 10.05,-11.59 14.31,-17.98 4.97,-7.42 9.22,-15.38 12.68,-23.75 3.34,-8.13 5.95,-16.74 7.71,-25.78 1.71,-8.73 2.61,-17.81 2.61,-27.19 0,-9.32 -0.91,-18.4 -2.63,-27.12 -1.76,-9.02 -4.39,-17.63 -7.76,-25.78 -3.43,-8.31 -7.71,-16.24 -12.72,-23.69 -4.99,-7.46 -10.81,-14.5 -17.33,-21.01 -6.53,-6.53 -13.57,-12.34 -21.01,-17.34 -7.42,-4.97 -15.37,-9.23 -23.75,-12.72 -8.13,-3.37 -16.74,-5.99 -25.74,-7.76 -8.71,-1.71 -17.78,-2.61 -27.1,-2.61 -9.38,0 -18.47,0.89 -27.19,2.59 -9.05,1.78 -17.67,4.39 -25.78,7.73 -8.38,3.45 -16.33,7.71 -23.75,12.66 -7.51,5.01 -14.5,10.76 -20.86,17.11 -6.44,6.44 -12.23,13.5 -17.29,21.04 -4.99,7.47 -9.27,15.46 -12.74,23.84 -3.37,8.15 -5.99,16.8 -7.76,25.85 -1.71,8.73 -2.61,17.83 -2.61,27.21zm5497.4 -2681.18l466.04 0 329.68 528.19 336.38 539.02 -104.8 -0.8c-303.47,-2.32 -606.98,-4.66 -910.45,-6.93l-8.31 -0.05 -105.38 -527.68 -106.27 -531.74 103.12 0zm735.49 2275.03c-2.59,-3.88 -5.55,-8.18 -8.85,-12.9 -3.12,-4.46 -6.3,-8.87 -9.49,-13.21 -3.01,-4.14 -6.1,-8.24 -9.23,-12.32 -2.92,-3.83 -5.93,-7.67 -9.03,-11.56l-1.12 -1.12 -1.23 -1.6c-0.65,-0.85 -1.51,-2.03 -2.5,-3.47 -1.02,-1.49 -1.76,-2.59 -2.3,-3.45l0.04 -0.02 -2.39 -3.92 -112.93 -134.21 603.15 0 0 464.96 -332.82 0 -14.2 -57.96c-0.85,-2.01 -1.58,-4.03 -2.32,-6.08 -1.09,-3.41 -2.03,-6.6 -2.99,-10.05 -1.29,-4.32 -2.59,-8.51 -3.88,-12.61 -1.78,-5.57 -3.59,-11.05 -5.44,-16.42 -1.81,-5.22 -3.79,-10.74 -5.95,-16.51 -2.14,-5.71 -4.37,-11.47 -6.69,-17.29 -2.25,-5.59 -4.55,-11.14 -6.88,-16.6 -2.47,-5.77 -4.83,-11.12 -7.09,-16.09 -2,-4.37 -4.01,-8.67 -6.02,-12.84l-1.78 -3.68 -0.34 0.18 -10.96 -19.94 -12.54 -18 1.83 -1.29 -6.15 -10.56 -0.05 0 -2.98 -4.9c-2.87,-4.75 -5.73,-9.38 -8.58,-13.88 -3.19,-5.04 -5.95,-9.29 -8.24,-12.7zm-177.93 833.13c-27.87,27.87 -58.58,53.08 -91.69,75.2 -32.69,21.84 -67.67,40.62 -104.51,55.88 -36.12,14.97 -73.94,26.52 -113.02,34.27 -38.15,7.56 -77.55,11.54 -117.81,11.54 -40.26,0 -79.66,-3.97 -117.79,-11.54 -39.08,-7.75 -76.9,-19.3 -113.02,-34.27 -36.83,-15.26 -71.82,-34.03 -104.51,-55.88 -33.09,-22.13 -63.8,-47.35 -91.65,-75.2 -55.55,-55.55 -100.38,-122.09 -131.07,-196.16 -14.97,-36.14 -26.52,-73.94 -34.27,-113.02 -7.56,-38.13 -11.54,-77.54 -11.54,-117.79l0 -1.18 0.4 -3.59 0.22 -4.73 0.25 -4.5c0.38,-5.22 0.89,-10.34 1.43,-15.55l1.36 -10.45 0.76 -4.92 2.79 -21.39c3.61,-34.52 10.09,-68.1 19.18,-100.49 9.29,-33.13 21.32,-65 35.77,-95.37 14.69,-30.88 31.98,-60.32 51.56,-88.02 19.74,-27.96 41.76,-54.08 65.78,-78.1 24,-24 50.12,-46.02 78.08,-65.78 27.7,-19.56 57.15,-36.85 88.02,-51.56 30.35,-14.46 62.24,-26.47 95.37,-35.77 32.38,-9.11 65.96,-15.58 100.49,-19.21l1.92 -0.16c1.14,-0.16 2.3,-0.31 3.43,-0.33 39.19,-3.76 77.86,-3.66 115.67,0 39.13,3.79 77.23,11.37 113.87,22.4 37.44,11.25 73.53,26.14 107.74,44.27 34.52,18.29 67.2,39.91 97.51,64.47 30.53,24.71 58.67,52.45 83.92,82.78 25.05,30.11 47.22,62.66 65.98,97.26 18.41,33.94 33.72,70.1 45.46,108.1 11.41,36.94 19.41,75.54 23.6,115.49l2.58 20.08 0.8 5.04 1.45 11.12c0.56,5.39 1.09,10.67 1.49,16.07l0.47 9.23 0.4 3.59 0 1.18c0,40.26 -3.97,79.66 -11.54,117.81 -7.75,39.08 -19.3,76.88 -34.27,113 -15.26,36.85 -34.03,71.82 -55.88,104.51 -22.13,33.09 -47.35,63.8 -75.2,91.65zm537.46 -1158.55l-2161.88 0 0 -1949.61 833.44 0 115.02 574.79 113.24 566.41c0.76,2.58 1.67,5.06 2.7,7.44 1.14,2.65 2.47,5.21 3.94,7.66 1.94,3.19 4.1,6.17 6.42,8.87 2.38,2.76 4.93,5.26 7.64,7.49 2.72,2.23 5.71,4.3 8.96,6.17 3.19,1.81 6.48,3.36 9.8,4.57 2.65,0.96 5.35,1.76 8.05,2.38 2.41,0.54 4.86,0.94 7.31,1.2l30.88 0 0.42 0.42 1098.63 8.47 0 753.79 -84.56 0 0 -0.05zm-3794.01 805.72l0 -678.05 1504.52 0 0 762.48 -10.16 0c-334.67,0.05 -669.35,0.04 -1004.02,0.02l-490.34 0 0 -84.45zm-2055.52 -480.35c-2.59,-3.88 -5.55,-8.18 -8.87,-12.9 -3.12,-4.44 -6.28,-8.85 -9.47,-13.19 -3.74,-5.1 -6.95,-9.38 -9.61,-12.86 -3.21,-4.14 -6.57,-8.38 -10.03,-12.7l-6.46 -8.04 0.4 -0.31 -1.81 -2.88 -113.71 -134.83 2087.48 0 0 464.96 -1816.54 0 -14.5 -58.58 -5.12 -12.17 0.91 -0.33c-1.54,-5.24 -3.08,-10.34 -4.66,-15.26 -1.8,-5.7 -3.66,-11.28 -5.55,-16.78 -1.81,-5.22 -3.79,-10.74 -5.95,-16.53 -1.98,-5.3 -4.23,-11.07 -6.69,-17.27 -2.27,-5.64 -4.57,-11.21 -6.91,-16.71 -2.49,-5.82 -4.88,-11.23 -7.17,-16.24 -1.74,-3.81 -3.74,-8.05 -5.97,-12.7l-1.72 -3.57 -0.34 0.18 -14.55 -26.49c-3.3,-6.02 -6.08,-10.99 -8.33,-14.89 -2.7,-4.72 -5.33,-9.18 -7.86,-13.33 -2.61,-4.32 -5.37,-8.74 -8.24,-13.26 -2.68,-4.21 -5.61,-8.67 -8.73,-13.33zm-177.89 833.18c-27.85,27.87 -58.56,53.08 -91.67,75.2 -32.69,21.84 -67.69,40.62 -104.51,55.88 -36.14,14.97 -73.94,26.52 -113.02,34.27 -38.15,7.56 -77.55,11.54 -117.81,11.54l-30.57 0 0 -1.09c-33.36,-1.67 -65.94,-6 -97.51,-12.81 -35.56,-7.66 -69.95,-18.47 -102.9,-32.09 -36.83,-15.24 -71.8,-33.98 -104.48,-55.8 -33.07,-22.1 -63.73,-47.28 -91.56,-75.09 -27.85,-27.85 -53.06,-58.54 -75.18,-91.65 -21.84,-32.67 -40.62,-67.65 -55.88,-104.48 -14.95,-36.1 -26.52,-73.91 -34.27,-112.97 -7.55,-38.13 -11.52,-77.52 -11.52,-117.77l0 -1.42 0.4 -3.41c0.2,-4.83 0.45,-9.45 0.8,-14.26l1.11 -10.79c0.65,-5.04 1.31,-10 2.1,-15.02l2.79 -21.52c3.61,-34.52 10.09,-68.08 19.18,-100.49 9.31,-33.11 21.32,-65 35.77,-95.37 14.69,-30.88 31.98,-60.3 51.56,-88.02 19.74,-27.96 41.76,-54.08 65.76,-78.08 24.11,-24.07 50.23,-46.1 78.08,-65.8 27.72,-19.56 57.15,-36.85 88.02,-51.56 30.35,-14.46 62.23,-26.47 95.35,-35.77 32.38,-9.11 65.96,-15.58 100.47,-19.21 39.78,-4.15 79.13,-4.34 117.61,-0.82 39.49,3.61 78.03,11.1 115.09,22.1 37.93,11.25 74.42,26.18 108.98,44.39 34.89,18.4 67.89,40.18 98.51,64.98 30.51,24.71 58.65,52.45 83.9,82.78 25.07,30.11 47.22,62.66 66,97.26l-0.04 0.02c18.49,34.05 33.8,70.21 45.52,108.09 11.41,36.94 19.41,75.56 23.62,115.51l2.56 20.06 0.82 5.04 1.45 11.12c0.56,5.39 1.09,10.67 1.49,16.07l0.47 9.23 0.4 3.59 0 1.18c0,40.26 -3.97,79.66 -11.54,117.81 -7.75,39.08 -19.3,76.88 -34.27,113 -15.26,36.85 -34.03,71.82 -55.89,104.51 -22.11,33.09 -47.33,63.8 -75.2,91.65zm-1209 -565.01l-1157.31 0 0 -211.6c62.75,-84.67 125.47,-169.37 188.16,-254.09l1305.46 0 -113 134.37 -2.09 3.39c-0.73,1.14 -1.47,2.27 -2.23,3.34 -0.71,1 -1.58,2.18 -2.65,3.56l-1.49 1.92 -0.71 0.71c-3.27,4.1 -6.13,7.78 -8.58,11.01 -2.41,3.17 -5.44,7.27 -9.07,12.28 -3.56,4.9 -6.77,9.4 -9.6,13.48l0 0.04c-3.39,4.88 -6.49,9.45 -9.31,13.68 -3.1,4.68 -6.08,9.27 -8.89,13.71 -2.61,4.14 -5.5,8.83 -8.67,14.1 -2.7,4.48 -5.39,9.05 -8.05,13.71 -2.52,4.41 -5.13,9.11 -7.82,14.04l-2.88 5.3 -0.22 0c-2.21,3.81 -3.61,5.86 -4.93,7.78 -2.81,5.42 -5.28,10.3 -7.42,14.69 -2.43,4.95 -4.81,9.98 -7.13,15.04l0 0.04c-2.39,5.19 -4.81,10.63 -7.26,16.31 -2.47,5.73 -4.7,11.05 -6.66,15.96 -2.45,6.13 -4.68,11.86 -6.64,17.13 -2.16,5.77 -4.15,11.28 -5.95,16.51 -1.31,3.76 -2.72,8 -4.26,12.74 -1.49,4.59 -2.83,8.85 -4.01,12.74l-2.27 8.07c-0.51,1.85 -0.98,3.34 -1.38,4.57 -0.36,1.12 -0.87,2.49 -1.43,3.95l-1 2.52 0.04 0.02 -0.63 1.45 -15.28 57.53 -64.84 0z"/>
  <path class="fil0" d="M1485.42 552.03l-567.36 81.02c-15.58,2.25 -29.15,10.03 -38.8,21.19 -9.65,11.12 -15.42,25.67 -15.42,41.45l0 676.55 -0.09 0c-0.2,60.86 18.21,118.68 50.83,166.85 32.56,48.09 79.37,86.63 135.97,109.05l0.09 0.07 270.53 108.56 -0.02 0.02c3.59,1.42 7.44,2.54 11.52,3.32 3.83,0.73 7.86,1.09 12.03,1.09l44.3 0 4.77 13.64c24.04,68.59 63.11,129.95 113.38,180.22 50.27,50.27 111.62,89.33 180.22,113.38l0.13 0.04c124.83,43.72 255.58,32.73 366.04,-20.39 110.45,-53.12 200.64,-148.4 244.4,-273.25l0.38 -1.05 6.3 -12.59 2258.26 0 4.79 13.64c24.04,68.61 63.11,129.95 113.38,180.24 50.25,50.25 111.61,89.33 180.22,113.37l0.11 0.04c124.85,43.72 255.59,32.73 366.06,-20.39 110.45,-53.12 200.64,-148.4 244.4,-273.25l0.38 -1.05 6.28 -12.59 292.91 0c17.47,0 33.27,-7.08 44.72,-18.5 11.45,-11.45 18.52,-27.25 18.52,-44.72l0 -495.97 0.07 0c-0.09,-64.51 -17.45,-126.61 -48.82,-180.63 -31.29,-53.93 -76.59,-99.8 -132.65,-131.92l0.02 -0.04c-144.04,-82.11 -297.41,-145.22 -456.28,-188.29 -158.97,-43.09 -323.23,-66.11 -488.89,-67.96l-5.12 -0.05 -290.73 -158.61c-206.34,-112.37 -425.29,-198.07 -651.53,-255.76 -226.28,-57.71 -459.52,-87.31 -694.45,-87.48l0 0.07 -98.54 0 0 -0.07c-199.1,-0.22 -397.22,20.9 -591.03,62.62 -193.61,41.69 -382.8,104 -564.29,186.2 -55.06,24.84 -109.21,51.36 -162.35,79.51 -52.85,27.99 -105.15,57.91 -156.85,89.67l-3.54 2.16 -4.25 0.6zm2261.13 330.99l-293.47 0 0 126.48 293.47 0 0 -126.48zm1077.82 1027c-75.63,-49.96 -132.21,-128.82 -151.81,-224.7 -2.38,-11.7 -4.17,-23.51 -5.37,-35.34 -1.23,-12.19 -1.87,-24.06 -1.87,-35.52l0.09 0c-0.02,-84.21 29.57,-162.58 79.77,-224.12 50.23,-61.55 121.11,-106.27 203.6,-123.13 95.86,-19.59 190.59,1.52 266.24,51.5 75.41,49.82 131.89,128.35 151.66,223.85l0.18 0.87c19.59,95.9 -1.52,190.63 -51.5,266.28 -49.82,75.4 -128.35,131.85 -223.87,151.63l-0.87 0.18c-95.88,19.59 -190.61,-1.52 -266.26,-51.5zm-305.79 -275.28l-1356.67 0c0,-291.93 0.04,-583.88 0,-875.81l1523.72 0 0 0.07c158.76,0.05 316.04,20.77 468.01,61.14 152.08,40.38 298.95,100.43 436.76,179.11l0.07 0c36.32,20.77 65.71,50.52 86.06,85.57 20.3,34.96 31.53,75.25 31.58,117.18l0.09 0 0 432.75 -207.65 0 0 -20.28c0,-132.8 -53.83,-253.02 -140.83,-340.02 -87.02,-87.02 -207.23,-140.83 -340.02,-140.83 -132.78,0 -252.98,53.81 -339.99,140.83 -87.01,87.01 -140.83,207.23 -140.83,340.02l0 20.28 -20.3 0zm-160.53 -1002.26l-1196.14 0 0 -371.88 21.17 0.93c204.53,8.83 406.69,40.98 602.71,95.33 196,54.37 385.87,130.96 565.81,228.76l85.75 46.86 -79.31 0zm-1390.16 -374.64l0 -0.07 67.58 0 0 374.71 -912.91 0 -173.5 -173.5 28.63 -11.41c157.63,-62.91 320.4,-110.45 486.03,-142.17 165.65,-31.75 334.46,-47.73 504.19,-47.55zm-1317.39 1652.18c-75.63,-49.96 -132.21,-128.82 -151.81,-224.7 -2.39,-11.7 -4.19,-23.51 -5.39,-35.36 -1.23,-12.17 -1.85,-24.04 -1.85,-35.5l0.07 0c-0.02,-84.21 29.57,-162.58 79.77,-224.12 50.23,-61.55 121.11,-106.27 203.6,-123.13 95.88,-19.59 190.61,1.52 266.28,51.5 75.63,49.98 132.21,128.82 151.83,224.7 19.57,95.9 -1.54,190.63 -51.52,266.3 -49.96,75.63 -128.82,132.21 -224.7,151.81 -95.88,19.59 -190.63,-1.52 -266.28,-51.5zm-409.63 -1027l-250.57 0 0 -132.51 530.46 -75.74c4.37,-0.63 8.62,-1.71 12.68,-3.17 4.14,-1.54 8.11,-3.48 11.85,-5.82 42.69,-26.58 86.52,-52.17 131.42,-76.74 45.1,-24.67 90.24,-47.75 135.35,-69.23l12.95 -6.15 226.71 226.71 0 0.07c5.88,5.9 12.86,10.5 20.48,13.68 7.53,3.12 15.75,4.77 24.2,4.77l939.04 0 0 875.76 -708.93 0 -0.02 -20.3c-0.13,-132.67 -54.01,-252.84 -141.07,-339.88 -87.04,-87.04 -207.19,-140.92 -339.86,-141.05l0 0.07c-9.11,0 -17.31,0.2 -24.74,0.58 -8.25,0.44 -16.31,1.05 -24.22,1.85l-0.16 0c-2.12,0.18 -5.59,0.78 -9.05,1.38 -2.14,0.36 -4.3,0.74 -8.13,1.25l0 0.04 -9.05 1.23c-7.24,0.98 -14.48,1.98 -21.06,3.32 -3.19,0.65 -6.35,1.52 -9.51,2.39 -3.57,0.98 -7.15,1.96 -8.8,2.36l-7.6 1.78c-6.59,1.58 -13.17,3.16 -19.9,5.22l0.02 0.04c-4.05,1.27 -7.55,2.61 -11.47,4.1 -1.65,0.63 -3.28,1.25 -8.65,3.19l-7.31 2.58c-5.91,2.07 -11.97,4.19 -16.69,6.2l-0.09 0c-3.7,1.56 -7.86,3.63 -12.34,5.86 -1.4,0.69 -2.74,1.34 -7.58,3.66l0 0.09c-5.73,2.72 -0.22,0.04 -6.95,3.19 -5.39,2.52 -10.79,5.06 -15.13,7.37l-0.09 0.09c-3.01,1.58 -5.81,3.19 -8.64,4.9l-0.07 0c-2.34,1.43 -5.61,3.52 -9.47,6.04l0.04 0.04c-3.01,1.96 -7.4,4.54 -11.72,7.08 -3.41,2 -6.77,3.95 -9.51,5.77 -4.05,2.72 -8.58,6.19 -13.06,9.6l-5.44 4.08c-2.99,2.27 -4.92,3.65 -6.78,4.99l0.02 0.04c-4.06,2.9 -8.16,5.84 -11.3,8.53 -3.27,2.81 -6.93,6.22 -10.47,9.54 -1.83,1.71 -3.57,3.34 -7.47,6.82l0.02 0.04 -5.39 4.72c-3.66,3.21 -7.33,6.42 -10.92,10.05 -2.81,2.87 -5.44,5.81 -7.98,8.67l0 0.09c-2.72,3.05 -5.35,6.02 -8.71,9.42l-0.44 0.45c-4.86,4.92 -9.56,9.69 -13.99,15 -3.47,4.15 -7.69,9.92 -11.57,15.18l-2.83 3.83c-2.32,3.12 -3.77,5.03 -5.17,6.84 -2.99,3.88 -5.99,7.8 -8.29,11.1l0.05 0.04c-2.43,3.48 -4.41,6.48 -5.95,8.98 -2.12,3.43 -4.21,7 -6.11,10.41l-0.07 0.16c-2.39,4.23 -4.21,7.08 -6.04,9.96 -2.1,3.32 -4.26,6.73 -5.93,9.76l-0.04 -0.02c-2.07,3.81 -4.43,8.76 -6.71,13.59 -1.14,2.43 -2.3,4.86 -3.7,7.69 -1.12,2.29 -2.25,4.44 -3.36,6.62 -2.36,4.52 -4.7,9.07 -6.3,13.15 -1.11,2.87 -2.74,7.47 -4.37,12.05 -1.14,3.21 -2.29,6.46 -3.85,10.59l-2.58 6.91c-2.07,5.44 -4.15,10.9 -5.5,15.11 -1.31,4.06 -2.49,8.8 -3.68,13.53l0 0.09c-0.47,1.92 -0.98,3.92 -2.43,9.23l-1.36 4.99c-1.61,5.82 -3.25,11.76 -4.61,17.96 -1.02,4.64 -1.78,9.76 -2.56,15 -0.25,1.67 -0.49,3.27 -1.29,8.27l-1.22 7.4c-1,5.84 -2,11.7 -2.47,16.38 -0.45,4.57 -0.71,9.83 -0.94,14.86 -0.18,3.94 -0.36,7.75 -0.47,9.56 -0.29,4.1 -0.45,6.08 -0.62,7.93 -0.4,4.68 -0.82,9.38 -0.82,13.7l0 29.97 -267.3 -107.36 0 0.04c-32.42,-12.79 -59.3,-34.96 -78.1,-62.7 -18.74,-27.67 -29.33,-60.83 -29.23,-95.71l-0.07 0 0 -362.74 250.57 0 0 -126.48z"/>
 </g>
</svg>
