<?xml version="1.0" encoding="UTF-8"?>
<!DOCTYPE svg PUBLIC "-//W3C//DTD SVG 1.1//EN" "http://www.w3.org/Graphics/SVG/1.1/DTD/svg11.dtd">
<!-- Creator: CorelDRAW 2018 (64-Bit) -->
<svg xmlns="http://www.w3.org/2000/svg" xml:space="preserve" width="32.9876mm" height="34.2542mm" version="1.1" style="shape-rendering:geometricPrecision; text-rendering:geometricPrecision; image-rendering:optimizeQuality; fill-rule:evenodd; clip-rule:evenodd"
viewBox="0 0 917.74 952.98"
 xmlns:xlink="http://www.w3.org/1999/xlink">
 <defs>
  <style type="text/css">
   <![CDATA[
    .str0 {stroke:black;stroke-width:5.56;stroke-miterlimit:22.9256}
    .fil1 {fill:black}
    .fil2 {fill:#2B2A29;fill-rule:nonzero}
    .fil0 {fill:black;fill-rule:nonzero}
   ]]>
  </style>
 </defs>
 <g id="Слой_x0020_1">
  <metadata id="CorelCorpID_0Corel-Layer"/>
  <path class="fil0 str0" d="M906.78 223.36l-224.35 0c-0.53,4.84 -1.21,9.62 -2.04,14.36 -0.03,0.67 -0.05,1.34 -0.08,2.01l218.28 0 0 215.31 -7.26 0 -872.19 0 0 -215.31 218.28 0c-0.14,-3.24 -0.23,-6.49 -0.23,-9.76 0,-2.21 0.04,-4.41 0.11,-6.61l-226.35 0c-1.13,0 -2.19,0.22 -3.14,0.61 -0.98,0.41 -1.88,1.02 -2.65,1.78 -0.77,0.77 -1.38,1.67 -1.79,2.65 -0.39,0.95 -0.61,2.01 -0.61,3.14l0 710.47c0,1.13 0.22,2.19 0.61,3.14 0.41,0.99 1.02,1.89 1.78,2.65l0.01 -0.01c0.77,0.77 1.67,1.38 2.65,1.78 0.95,0.4 2.01,0.61 3.14,0.61l895.82 0c1.13,0 2.19,-0.22 3.14,-0.61 0.98,-0.4 1.88,-1.02 2.65,-1.78 0.77,-0.77 1.38,-1.66 1.78,-2.65 0.4,-0.95 0.61,-2.01 0.61,-3.14l0 -710.47c0,-1.13 -0.22,-2.19 -0.61,-3.14 -0.41,-0.98 -1.02,-1.88 -1.78,-2.65l0 -0.01c-0.75,-0.75 -1.65,-1.36 -2.65,-1.77 -0.95,-0.39 -2.01,-0.61 -3.14,-0.61zm-238.04 78.15l152.63 0 0 91.75 -212.61 0c-6.35,5.83 -13.05,11.3 -20.04,16.37l240.83 0c1.13,0 2.19,-0.22 3.14,-0.61 0.99,-0.41 1.89,-1.02 2.65,-1.78l-0.01 -0.01c0.77,-0.77 1.38,-1.66 1.78,-2.65 0.39,-0.95 0.61,-2.01 0.61,-3.14l0 -108.11c0,-1.13 -0.22,-2.19 -0.61,-3.14 -0.41,-0.99 -1.02,-1.89 -1.78,-2.65 -0.76,-0.76 -1.66,-1.37 -2.65,-1.78 -0.95,-0.4 -2.01,-0.61 -3.14,-0.61l-155.94 0c-1.42,5.54 -3.05,11 -4.88,16.36zm-359.76 91.75l-228.05 0 0 -91.75 168.08 0c-1.83,-5.36 -3.46,-10.82 -4.88,-16.36l-171.38 0c-1.13,0 -2.19,0.22 -3.14,0.61 -0.99,0.41 -1.89,1.02 -2.65,1.78l0.01 0.01c-0.77,0.77 -1.38,1.66 -1.78,2.65 -0.4,0.95 -0.61,2.01 -0.61,3.14l0 108.11c0,1.13 0.22,2.19 0.61,3.14 0.41,0.98 1.02,1.88 1.78,2.65 0.77,0.77 1.67,1.38 2.65,1.79 0.95,0.39 2.01,0.61 3.14,0.61l256.28 0c-7,-5.07 -13.7,-10.53 -20.04,-16.37zm-112.67 540.58l-38.15 0 -16.36 0 -60.86 0 -16.36 0 -5.84 0 -39.58 0 0 -462.43 879.44 0 0 20.86 0.01 0 0 164.48 0 153.53 0 16.36 0 107.2 -7.26 0 -254.38 0 -16.37 0 -7.26 0 -130.82 0 -16.38 0 -7.25 0 -53.6 0 -16.36 0 -7.26 0 -38.15 0 -16.36 0 -7.26 0 -99.93 0 -16.36 0 -7.26 0z"/>
  <g id="_345239893792">
   <path class="fil1 str0" d="M511.93 171.06c-3.22,0 -5.84,2.61 -5.84,5.84 0,3.23 2.62,5.84 5.84,5.84 3.23,0 5.84,-2.61 5.84,-5.84 0,-3.23 -2.61,-5.84 -5.84,-5.84zm0 0z"/>
   <path class="fil1 str0" d="M405.81 277.18c-3.23,0 -5.84,2.62 -5.84,5.84 0,3.23 2.61,5.84 5.84,5.84 3.22,0 5.84,-2.61 5.84,-5.84 0,-3.22 -2.62,-5.84 -5.84,-5.84zm0 0z"/>
   <path class="fil1 str0" d="M601.14 116.37c-1.97,-0.46 -4.04,0.14 -5.47,1.57l-24.22 24.4 -11.61 0 -12.78 -13.24 0 -11.77 23.87 -24.22c1.41,-1.43 1.99,-3.49 1.52,-5.45 -0.46,-1.96 -1.91,-3.54 -3.81,-4.18 -6,-2.02 -12.27,-3.05 -18.65,-3.05 -19.02,0 -36.31,8.87 -47.42,24.34 -10.4,14.48 -13.61,32.22 -9.01,49.21l-43.02 43.02 -71.68 -71.84 0 -14.1c0,-2.05 -1.08,-3.95 -2.83,-5.01l-41.3 -24.78c-2.3,-1.38 -5.24,-1.02 -7.13,0.88l-16.52 16.52c-1.89,1.9 -2.26,4.84 -0.88,7.14l24.78 41.3c1.05,1.76 2.95,2.83 5,2.83l14.1 0.01 71.69 71.84 -42.86 42.86c-16.98,-4.59 -34.74,-1.38 -49.22,9.03 -15.46,11.1 -24.32,28.38 -24.32,47.41 0,6.38 1.03,12.66 3.05,18.65 0.65,1.92 2.24,3.37 4.21,3.82 1.98,0.46 4.05,-0.14 5.47,-1.57l24.21 -24.4 11.67 0 13.3 13.3 0 11.67 -24.4 24.21c-1.44,1.43 -2.03,3.49 -1.57,5.47 0.46,1.97 1.9,3.57 3.82,4.21 6,2.02 12.27,3.05 18.65,3.05 19.02,0 36.3,-8.87 47.41,-24.33 10.41,-14.49 13.62,-32.24 9.03,-49.22l34.42 -34.43 7.89 8.57 -3.62 3.62c-2.28,2.28 -2.28,5.98 0,8.26 2.28,2.28 5.98,2.28 8.26,0l3.28 -3.28 73.99 80.36c0.05,0.06 0.11,0.12 0.17,0.18 13.69,13.69 35.87,13.69 49.57,-0 13.66,-13.67 13.66,-35.9 0,-49.57 -0.06,-0.06 -0.12,-0.12 -0.18,-0.17l-80.49 -73.84 3.24 -3.24c2.28,-2.28 2.28,-5.98 0,-8.26 -2.28,-2.28 -5.98,-2.28 -8.26,0l-3.59 3.59 -8.58 -7.88 34.59 -34.59c4.92,1.32 9.99,1.98 15.13,1.98 32.21,0 58.41,-26.2 58.41,-58.41 0,-6.38 -1.02,-12.66 -3.05,-18.65 -0.65,-1.92 -2.24,-3.37 -4.21,-3.82l0 0zm-240.52 23.61c-1.09,-1.1 -2.58,-1.66 -4.13,-1.66l-13.21 -0 -20.73 -34.61 10.07 -10.07 34.55 20.73 0 13.21c0,1.55 0.61,3.03 1.71,4.13l73.4 73.56 -8.26 8.26 -73.39 -73.55zm148.57 113.94l80.76 74.09c9.02,9.12 8.99,23.88 -0.08,32.96 -9.1,9.1 -23.83,9.13 -32.96,0.08l-74.23 -80.63 26.51 -26.51zm-8.61 -7.91l-25.82 25.81 -7.88 -8.57 25.12 -25.12 8.58 7.88zm49.41 -60.44c-5.11,0 -10.13,-0.82 -14.93,-2.43 -2.1,-0.7 -4.42,-0.16 -5.99,1.4 -29.28,29.28 -92.38,92.38 -115.62,115.62 -1.57,1.57 -2.11,3.89 -1.4,6 4.85,14.42 2.53,29.8 -6.37,42.2 -8.88,12.36 -22.7,19.46 -37.92,19.46 -1.71,0 -3.41,-0.09 -5.09,-0.28l18.55 -18.41c1.1,-1.1 1.73,-2.59 1.73,-4.15l0 -16.52c0,-1.55 -0.62,-3.04 -1.71,-4.13l-16.72 -16.72c-1.1,-1.1 -2.58,-1.71 -4.13,-1.71l-16.52 0c-1.56,0 -3.05,0.62 -4.15,1.72l-18.41 18.55c-0.18,-1.68 -0.27,-3.38 -0.27,-5.09 0,-15.22 7.09,-29.03 19.46,-37.92 12.4,-8.91 27.78,-11.23 42.2,-6.38 2.1,0.71 4.42,0.16 6,-1.4 0.32,-0.32 115.53,-115.53 115.61,-115.62 1.57,-1.57 2.11,-3.89 1.4,-5.99 -4.86,-14.42 -2.54,-29.79 6.36,-42.18 8.89,-12.38 22.71,-19.47 37.93,-19.47 1.76,0 3.51,0.1 5.24,0.29l-18.17 18.44c-1.08,1.09 -1.68,2.57 -1.68,4.1l0 16.52c0,1.52 0.58,2.97 1.64,4.06l16.14 16.72c1.1,1.14 2.62,1.79 4.2,1.79l16.52 0c1.56,0 3.05,-0.62 4.15,-1.73l18.41 -18.55c0.18,1.68 0.28,3.38 0.28,5.09 0,25.76 -20.96,46.73 -46.73,46.73l0 0zm0 0z"/>
   <path class="fil1 str0" d="M491.29 189.28l-73.09 73.09c-2.28,2.28 -2.28,5.98 0,8.26 2.28,2.28 5.98,2.28 8.26,0l73.09 -73.09c2.28,-2.28 2.28,-5.98 0,-8.26 -2.28,-2.28 -5.98,-2.28 -8.26,0zm0 0z"/>
   <path class="fil1 str0" d="M565.1 344.45c2.28,2.28 5.98,2.28 8.26,-0.01 2.28,-2.28 2.27,-5.98 -0.01,-8.26l-52.65 -52.48c-2.28,-2.28 -5.98,-2.27 -8.26,0.01 -2.28,2.29 -2.27,5.98 0.01,8.26l52.65 52.48zm0 0z"/>
  </g>
  <path class="fil2" d="M458.87 -0c63.5,0 120.99,25.74 162.61,67.36 41.61,41.61 67.36,99.11 67.36,162.61 0,63.5 -25.74,121 -67.36,162.61 -41.62,41.62 -99.11,67.36 -162.61,67.36 -63.5,0 -121,-25.74 -162.61,-67.36 -41.61,-41.61 -67.35,-99.11 -67.35,-162.61 0,-63.5 25.74,-121 67.35,-162.61 41.62,-41.62 99.11,-67.36 162.61,-67.36zm150.87 79.09c-38.61,-38.61 -91.95,-62.49 -150.87,-62.49 -58.92,0 -112.26,23.88 -150.88,62.49 -38.61,38.61 -62.49,91.95 -62.49,150.87 0,58.92 23.88,112.26 62.49,150.87 38.61,38.61 91.95,62.49 150.88,62.49 58.92,0 112.26,-23.88 150.87,-62.49 38.61,-38.61 62.49,-91.95 62.49,-150.87 0,-58.92 -23.88,-112.26 -62.49,-150.87z"/>
  <path class="fil0" d="M173.05 640.88l-87.01 12.42c-2.39,0.34 -4.47,1.54 -5.95,3.25 -1.48,1.71 -2.36,3.94 -2.36,6.36l0 103.75 -0.01 0c-0.03,9.33 2.79,18.2 7.79,25.59 4.99,7.38 12.17,13.28 20.85,16.72l0.01 0.01 41.49 16.65 -0 0c0.55,0.22 1.14,0.39 1.77,0.51 0.59,0.11 1.21,0.17 1.84,0.17l6.79 0 0.73 2.09c3.69,10.52 9.68,19.93 17.39,27.64 7.71,7.71 17.12,13.7 27.63,17.39l0.02 0.01c19.15,6.7 39.2,5.02 56.14,-3.13 16.94,-8.15 30.77,-22.76 37.48,-41.9l0.06 -0.16 0.97 -1.93 346.32 0 0.73 2.09c3.69,10.52 9.68,19.93 17.39,27.64 7.71,7.71 17.11,13.7 27.63,17.39l0.02 0.01c19.14,6.7 39.19,5.02 56.13,-3.13 16.94,-8.15 30.77,-22.76 37.48,-41.9l0.06 -0.16 0.97 -1.93 44.92 0c2.68,0 5.11,-1.09 6.86,-2.84 1.75,-1.76 2.84,-4.18 2.84,-6.86l0 -76.06 0.01 0c-0.02,-9.89 -2.68,-19.42 -7.49,-27.7 -4.8,-8.27 -11.75,-15.3 -20.34,-20.23l0 -0.01c-22.09,-12.59 -45.61,-22.27 -69.97,-28.88 -24.38,-6.61 -49.57,-10.14 -74.98,-10.42l-0.78 -0.01 -44.59 -24.32c-31.65,-17.23 -65.22,-30.37 -99.92,-39.22 -34.7,-8.85 -70.47,-13.39 -106.5,-13.42l0 0.01 -15.12 0 0 -0.01c-30.53,-0.03 -60.91,3.2 -90.64,9.6 -29.69,6.39 -58.7,15.95 -86.54,28.56 -8.44,3.81 -16.75,7.88 -24.9,12.19 -8.1,4.29 -16.12,8.88 -24.05,13.75l-0.54 0.33 -0.65 0.09zm346.76 50.76l-45.01 0 0 19.4 45.01 0 0 -19.4zm165.29 157.5c-11.6,-7.66 -20.28,-19.76 -23.28,-34.46 -0.37,-1.79 -0.64,-3.61 -0.83,-5.42 -0.19,-1.87 -0.28,-3.69 -0.28,-5.45l0.01 0c-0,-12.91 4.53,-24.93 12.24,-34.37 7.7,-9.44 18.57,-16.3 31.22,-18.88 14.7,-3 29.23,0.23 40.83,7.9 11.57,7.64 20.23,19.68 23.26,34.33l0.03 0.13c3,14.71 -0.24,29.23 -7.9,40.84 -7.64,11.56 -19.68,20.22 -34.33,23.25l-0.13 0.03c-14.7,3 -29.23,-0.23 -40.83,-7.9zm-46.89 -42.21l-208.06 0c0,-44.77 0.01,-89.54 0,-134.31l233.67 0 0 0.01c24.34,0.01 48.46,3.19 71.77,9.38 23.32,6.19 45.85,15.4 66.98,27.47l0.01 0c5.57,3.19 10.08,7.75 13.2,13.12 3.11,5.36 4.84,11.54 4.85,17.97l0.01 0 0 66.37 -31.84 0 0 -3.11c0,-20.36 -8.25,-38.8 -21.6,-52.14 -13.34,-13.35 -31.78,-21.6 -52.14,-21.6 -20.36,0 -38.8,8.25 -52.14,21.6 -13.34,13.34 -21.59,31.78 -21.59,52.14l0 3.11 -3.11 0zm-24.62 -153.7l-183.43 0 0 -57.03 3.25 0.14c31.37,1.35 62.37,6.28 92.43,14.62 30.06,8.34 59.18,20.09 86.77,35.08l13.15 7.19 -12.16 0zm-213.19 -57.45l0 -0.01 10.36 0 0 57.46 -140 0 -26.61 -26.61 4.39 -1.75c24.18,-9.65 49.14,-16.94 74.54,-21.8 25.4,-4.87 51.29,-7.32 77.32,-7.29zm-202.03 253.37c-11.6,-7.66 -20.28,-19.76 -23.28,-34.46 -0.36,-1.79 -0.64,-3.61 -0.83,-5.42 -0.19,-1.87 -0.28,-3.69 -0.28,-5.44l0.01 0c-0,-12.91 4.54,-24.93 12.24,-34.37 7.7,-9.44 18.57,-16.3 31.22,-18.88 14.7,-3 29.23,0.23 40.83,7.9 11.6,7.66 20.28,19.76 23.28,34.46 3,14.71 -0.23,29.23 -7.9,40.84 -7.66,11.6 -19.76,20.28 -34.46,23.28 -14.71,3 -29.23,-0.23 -40.84,-7.9zm-62.82 -157.5l-38.43 0 0 -20.32 81.35 -11.62c0.67,-0.09 1.32,-0.26 1.95,-0.49 0.63,-0.24 1.24,-0.53 1.82,-0.89 6.55,-4.08 13.27,-8 20.15,-11.77 6.91,-3.78 13.84,-7.32 20.76,-10.62l1.98 -0.94 34.77 34.77 0 0.01c0.9,0.9 1.97,1.61 3.14,2.1 1.15,0.48 2.41,0.73 3.71,0.73l144 0 0 134.3 -108.72 0 -0 -3.11c-0.02,-20.35 -8.29,-38.77 -21.63,-52.12 -13.35,-13.35 -31.78,-21.61 -52.12,-21.63l0 0.01c-1.4,0 -2.65,0.03 -3.79,0.09 -1.27,0.07 -2.5,0.16 -3.71,0.28l-0.03 0c-0.32,0.03 -0.85,0.12 -1.39,0.21 -0.33,0.06 -0.66,0.11 -1.24,0.19l0 0.01 -1.39 0.19c-1.11,0.15 -2.22,0.3 -3.23,0.51 -0.49,0.1 -0.97,0.23 -1.46,0.37 -0.55,0.15 -1.1,0.3 -1.35,0.36l-1.16 0.27c-1.01,0.24 -2.02,0.48 -3.05,0.8l0 0.01c-0.62,0.19 -1.15,0.4 -1.76,0.63 -0.25,0.1 -0.5,0.19 -1.32,0.49l-1.12 0.4c-0.91,0.32 -1.84,0.64 -2.56,0.95l-0.01 0c-0.57,0.24 -1.21,0.56 -1.89,0.9 -0.21,0.11 -0.42,0.21 -1.16,0.56l0 0.01c-0.88,0.42 -0.03,0.01 -1.06,0.49 -0.83,0.39 -1.66,0.78 -2.32,1.13l-0.01 0.01c-0.46,0.24 -0.89,0.49 -1.32,0.75l-0.01 0c-0.36,0.22 -0.86,0.54 -1.45,0.93l0 0.01c-0.46,0.3 -1.14,0.7 -1.8,1.09 -0.52,0.31 -1.04,0.61 -1.46,0.88 -0.62,0.42 -1.31,0.95 -2,1.47l-0.83 0.63c-0.46,0.34 -0.76,0.56 -1.04,0.76l0 0.01c-0.62,0.45 -1.25,0.9 -1.73,1.31 -0.5,0.43 -1.06,0.95 -1.61,1.46 -0.28,0.26 -0.55,0.51 -1.15,1.05l0.01 0.01 -0.83 0.72c-0.56,0.49 -1.13,0.98 -1.68,1.54 -0.43,0.44 -0.83,0.89 -1.22,1.33l0 0.01c-0.41,0.47 -0.82,0.92 -1.34,1.44l-0.06 0.07c-0.75,0.75 -1.47,1.49 -2.15,2.3 -0.53,0.64 -1.18,1.52 -1.77,2.33l-0.44 0.59c-0.36,0.48 -0.58,0.77 -0.79,1.05 -0.46,0.6 -0.92,1.2 -1.27,1.7l0.01 0.01c-0.37,0.53 -0.67,0.99 -0.91,1.38 -0.33,0.53 -0.65,1.07 -0.94,1.6l-0.01 0.03c-0.37,0.65 -0.65,1.09 -0.93,1.53 -0.33,0.51 -0.66,1.03 -0.91,1.5l-0 -0c-0.32,0.58 -0.68,1.34 -1.03,2.08 -0.18,0.37 -0.35,0.75 -0.56,1.18 -0.17,0.35 -0.34,0.68 -0.52,1.02 -0.36,0.69 -0.72,1.39 -0.96,2.02 -0.17,0.44 -0.42,1.15 -0.67,1.85 -0.18,0.49 -0.35,0.99 -0.59,1.62l-0.4 1.06c-0.32,0.83 -0.64,1.67 -0.84,2.32 -0.2,0.62 -0.38,1.35 -0.56,2.08l0 0.01c-0.07,0.29 -0.15,0.6 -0.38,1.42l-0.21 0.77c-0.25,0.89 -0.5,1.8 -0.71,2.75 -0.16,0.71 -0.27,1.5 -0.39,2.3 -0.04,0.26 -0.08,0.5 -0.2,1.27l-0.19 1.14c-0.15,0.9 -0.31,1.79 -0.38,2.51 -0.07,0.7 -0.11,1.51 -0.14,2.28 -0.03,0.6 -0.06,1.19 -0.08,1.47 -0.04,0.63 -0.07,0.93 -0.09,1.22 -0.06,0.72 -0.13,1.44 -0.13,2.1l0 4.6 -40.99 -16.46 -0 0.01c-4.97,-1.96 -9.09,-5.36 -11.97,-9.61 -2.88,-4.25 -4.5,-9.33 -4.48,-14.68l-0.01 0 0 -55.63 38.43 0 0 -19.4z"/>
 </g>
</svg>
