<?xml version="1.0" encoding="UTF-8"?>
<!DOCTYPE svg PUBLIC "-//W3C//DTD SVG 1.1//EN" "http://www.w3.org/Graphics/SVG/1.1/DTD/svg11.dtd">
<!-- Creator: CorelDRAW 2018 (64-Bit) -->
<svg xmlns="http://www.w3.org/2000/svg" xml:space="preserve" width="30.6028mm" height="30.7044mm" version="1.1" style="shape-rendering:geometricPrecision; text-rendering:geometricPrecision; image-rendering:optimizeQuality; fill-rule:evenodd; clip-rule:evenodd"
viewBox="0 0 391.49 392.79"
 xmlns:xlink="http://www.w3.org/1999/xlink">
 <defs>
  <style type="text/css">
   <![CDATA[
    .fil0 {fill:black}
   ]]>
  </style>
 </defs>
 <g id="Слой_x0020_1">
  <metadata id="CorelCorpID_0Corel-Layer"/>
  <path class="fil0" d="M388.43 285.37l-36.92 -13.44c-1.21,-0.44 -2.48,-0.34 -3.55,0.16 -1.07,0.5 -1.96,1.42 -2.39,2.63l-2.89 7.94c-12.64,-4.61 -33.41,-10.75 -44.57,-16.25 -0.36,-0.14 -0.75,-0.22 -1.16,-0.26 -0.41,-0.04 -0.82,-0.02 -1.2,0.05l-0.02 0.01 -88.98 15.71c-3.74,0.67 -7.22,2.18 -10.18,4.38 -2.98,2.2 -5.45,5.08 -7.19,8.46l-0.77 1.49 -42.39 -15.46 -0.01 0c-3.03,-1.11 -6.21,-1.6 -9.36,-1.46 -3.15,0.14 -6.28,0.9 -9.19,2.27l-0.01 0c-3.7,1.72 -6.84,4.32 -9.21,7.5 -2.37,3.18 -3.97,6.93 -4.57,10.96l-0.01 0c-0.75,5.84 0.61,11.55 3.55,16.28 2.94,4.73 7.47,8.48 13.05,10.39l134.49 48.95 0.01 0c0.25,0.09 0.51,0.16 0.78,0.21l0.01 0c0.29,0.05 0.55,0.08 0.79,0.08l0.01 -0.01c0.27,0 0.52,-0.02 0.75,-0.06 0.25,-0.04 0.5,-0.1 0.74,-0.18l38.18 -12.89 6.41 2.33 -2.89 7.94c-0.44,1.21 -0.34,2.48 0.16,3.56 0.5,1.07 1.42,1.96 2.63,2.4l36.94 13.44c0.25,0.09 0.51,0.17 0.77,0.21l0 -0.01c0.29,0.05 0.55,0.08 0.8,0.08 0.98,0 1.9,-0.3 2.67,-0.84 0.76,-0.53 1.36,-1.3 1.7,-2.22l35.83 -98.44c0.43,-1.21 0.33,-2.47 -0.18,-3.54 -0.51,-1.07 -1.42,-1.95 -2.61,-2.39zm-235.99 -182.15c1.02,3.72 2.47,7.3 4.3,10.67 1.83,3.35 4.06,6.51 6.66,9.38l0.63 0.7 -0.18 0.93c-0.05,0.26 -0.09,0.48 -0.11,0.68 -0.02,0.17 -0.04,0.35 -0.05,0.56l0 35.66c0,4.9 1.98,9.33 5.19,12.54 3.21,3.21 7.64,5.19 12.54,5.19l1.91 0 0 67.39 -0.01 0.01c-0.01,0.88 0.24,1.73 0.69,2.46l0 -0c0.45,0.73 1.09,1.33 1.88,1.72l0 0.01 13.09 6.55 0 -0.01c0.65,0.33 1.37,0.49 2.08,0.49 0.72,0 1.43,-0.16 2.08,-0.48l13.09 -6.55 0 -0.01c0.79,-0.39 1.43,-0.99 1.88,-1.72 0.45,-0.73 0.7,-1.58 0.69,-2.46l-0.01 -0.01 0 -67.39 1.91 0c4.9,0 9.33,-1.99 12.54,-5.2 3.21,-3.21 5.2,-7.64 5.2,-12.54l0 -35.66c-0.02,-0.23 -0.04,-0.43 -0.06,-0.61 -0.03,-0.2 -0.07,-0.45 -0.12,-0.74l-0.18 -0.93 0.64 -0.71c2.12,-2.33 3.99,-4.83 5.6,-7.48 1.61,-2.65 2.97,-5.47 4.06,-8.42l0.55 -1.48 1.55 0.26c4.45,0.75 8.91,0.1 12.83,-1.7 3.92,-1.8 7.32,-4.75 9.65,-8.61l-0.01 -0c2.89,-4.78 3.94,-10.23 3.26,-15.45 -0.67,-5.22 -3.07,-10.23 -7.07,-14.11 -17.77,-17.77 -35.54,-35.53 -53.31,-53.3 -4.11,-4.13 -8.96,-7.35 -14.23,-9.54 -5.28,-2.19 -11,-3.34 -16.82,-3.32l0 0.01 -68.85 0 0 -0.01c-0.31,-0 -0.63,0.03 -0.93,0.09 -0.29,0.06 -0.59,0.16 -0.89,0.29l-0.01 0 -44.93 19.27 -7.53 0 0 -15c0,-1.28 -0.52,-2.44 -1.36,-3.28 -0.84,-0.84 -2,-1.36 -3.28,-1.36l-52.38 0c-1.28,0 -2.44,0.52 -3.28,1.36 -0.84,0.84 -1.36,2 -1.36,3.28l0 104.77c0,1.28 0.52,2.44 1.36,3.28 0.84,0.84 2,1.36 3.28,1.36l52.38 0c1.28,0 2.44,-0.52 3.28,-1.36 0.84,-0.84 1.36,-2 1.36,-3.28l0 -15 4.28 0 0.41 1.36c2.11,7.06 7.83,13.04 15.24,17.36 8.12,4.74 18.22,7.46 27.81,7.46l0.04 0.01c7.65,0.16 15.13,-1.43 21.92,-4.52 6.79,-3.1 12.89,-7.7 17.79,-13.58l2.33 -2.8 0.96 3.52zm-101.97 1.55l-41.2 0 0 -95.49 43.1 0 0 95.49 -1.91 0zm158 139.8l-7.4 3.7 -8.46 -4.23 0 -64.5 16.91 0 0 64.5 -1.06 0.53zm20.7 -82.77c0,2.33 -0.95,4.45 -2.48,5.98 -1.53,1.53 -3.64,2.48 -5.98,2.48l-39.29 0c-2.33,0 -4.45,-0.95 -5.98,-2.48 -1.53,-1.53 -2.48,-3.64 -2.48,-5.98l0 -30.04 2.86 1.67c2.14,1.24 4.34,2.32 6.6,3.22 2.25,0.9 4.59,1.63 7,2.2l0.95 0.22 0.37 0.91c0.97,2.36 2.66,4.24 4.75,5.45 2.09,1.22 4.57,1.77 7.09,1.45 2.53,-0.32 4.79,-1.47 6.51,-3.17 1.72,-1.7 2.89,-3.94 3.24,-6.47 0.05,-0.35 0.08,-0.7 0.1,-1.05l-0.72 0.72 0.73 -0.93c0.06,-2.08 -0.47,-4.09 -1.46,-5.84 -1.19,-2.1 -3.05,-3.83 -5.4,-4.83 -2.35,-1 -4.88,-1.15 -7.22,-0.55 -2.33,0.6 -4.48,1.95 -6.05,3.95l-0.77 0.98 -1.21 -0.32c-1.95,-0.51 -3.85,-1.16 -5.68,-1.94 -1.85,-0.79 -3.63,-1.71 -5.32,-2.75l-2.65 -1.63 2.67 -1.62c3.29,-2 6.76,-3.62 10.34,-4.85 3.6,-1.23 7.33,-2.08 11.14,-2.53l0.23 -0.03 0.24 0.03c4.84,0.68 9.58,1.92 14.11,3.68 2.82,1.1 5.56,2.39 8.2,3.88l5.7 -7.32c-4.04,-2.43 -8.3,-4.44 -12.73,-5.99 -5.01,-1.77 -10.23,-2.96 -15.54,-3.54 -5.3,0.58 -10.51,1.77 -15.51,3.53 -5.07,1.79 -9.93,4.16 -14.48,7.08l-1.46 0.94 -1.07 -1.36c-2.1,-2.67 -3.84,-5.58 -5.19,-8.66 -1.35,-3.08 -2.32,-6.33 -2.87,-9.69l-0.36 -2.21 34.4 0 0.02 0.01c4.44,0.04 8.71,-1.16 12.38,-3.35 3.67,-2.2 6.74,-5.39 8.8,-9.31l1.2 -2.3 20.17 20.16 -0 0c0.34,0.32 0.67,0.61 0.99,0.87 0.36,0.29 0.72,0.57 1.09,0.84l1.15 0.83 -0.45 1.33c-0.71,2.08 -1.59,4.09 -2.63,6.02 -0.71,1.31 -1.49,2.59 -2.36,3.82l0.29 0.18 -9.39 9.39c0.87,0.54 1.73,1.1 2.57,1.67l0.83 0.57 0 36.66 0.01 0zm-10.66 -94.48c-0.28,-2.48 -0.95,-4.88 -1.96,-7.13 -1.01,-2.25 -2.38,-4.35 -4.05,-6.21l-4.94 -5.5 6.98 2.43c7.76,2.7 14.36,7.57 19.16,13.82 4.8,6.25 7.81,13.87 8.41,22.07l0.38 5.1c-7.97,-7.97 -15.93,-15.95 -23.9,-23.92l-0.08 -0.67zm-74.46 22.45c0,5.67 -4.43,11.16 -11.11,15.17 -6.4,3.84 -14.94,6.38 -23.54,6.38 -8.6,0 -17.14,-2.54 -23.54,-6.38 -6.68,-4.01 -11.11,-9.5 -11.11,-15.17 0,-1.28 -0.52,-2.44 -1.36,-3.28 -0.84,-0.84 -2,-1.36 -3.28,-1.36l-8.46 0 0 -56.19 8.46 0c0.31,0 0.62,-0.03 0.93,-0.09 0.29,-0.06 0.59,-0.16 0.89,-0.29l0.01 0 44.93 -19.27 67.89 0 0 0.01c4.6,-0.02 9.11,0.89 13.27,2.61 4.17,1.73 8.01,4.27 11.25,7.53l0 -0 53.28 53.27 -0 0c2.45,2.31 3.95,5.31 4.42,8.46 0.47,3.16 -0.09,6.48 -1.79,9.42l-0.04 0.07c-1.27,2.01 -3.02,3.62 -5.04,4.72 -2.02,1.1 -4.31,1.69 -6.68,1.66l0 0.01 -2.44 0 0.24 -2.12c0.1,-0.87 0.17,-1.73 0.22,-2.57 0.05,-0.9 0.08,-1.77 0.08,-2.6 -0.02,-13.92 -5.67,-26.53 -14.81,-35.67 -9.14,-9.14 -21.75,-14.79 -35.67,-14.81 -4.23,0.01 -8.43,0.55 -12.51,1.61 -4.07,1.06 -8,2.63 -11.71,4.69l-0.43 0.24 -52.02 0 0 9.29 70.12 0c4.14,0 7.89,1.68 10.61,4.39 2.71,2.72 4.39,6.47 4.39,10.61 0,4.14 -1.68,7.89 -4.39,10.61 -2.72,2.72 -6.47,4.4 -10.61,4.4l0 -0.01 -45.83 0 0 0.01c-1.28,0 -2.44,0.52 -3.28,1.36 -0.84,0.84 -1.36,2 -1.36,3.28zm160.71 263.78l-38.16 12.88 -132.92 -48.39 0 -0c-3.46,-1.17 -6.3,-3.44 -8.18,-6.34 -1.89,-2.91 -2.82,-6.44 -2.47,-10.09l0.01 -0.08c0.32,-2.25 1.13,-4.36 2.35,-6.2 1.22,-1.84 2.85,-3.41 4.79,-4.58 1.94,-1.16 4.09,-1.86 6.29,-2.07 2.2,-0.21 4.44,0.07 6.56,0.84l43.71 15.9 0.02 1.31c0.01,0.51 0.04,1.08 0.09,1.71 0.04,0.56 0.11,1.11 0.19,1.66l-0 0c1.2,6.56 4.93,12.03 10,15.58 5.08,3.56 11.52,5.19 18.12,4.06l71.83 -12.67 -1.62 -9.14 -71.81 12.67 -0.02 0c-4.06,0.69 -8.02,-0.31 -11.15,-2.5 -3.14,-2.19 -5.45,-5.56 -6.2,-9.61l0 -0.01c-0.16,-0.86 -0.23,-1.73 -0.23,-2.61 0.01,-0.9 0.09,-1.77 0.26,-2.61l0.02 -0.04 0.04 -0.24c0.01,-0.08 0.02,-0.15 0.03,-0.22l0.01 -0.07c0.05,-0.32 0.13,-0.67 0.23,-1.05 0.1,-0.36 0.21,-0.7 0.34,-1.01l0 0c0.92,-2.49 2.47,-4.65 4.44,-6.3 1.98,-1.66 4.39,-2.81 7.03,-3.29l0.01 -0.01 87.73 -15.47c14.46,5.26 28.93,10.52 43.4,15.79l-23.7 65.12c-2.36,-0.86 -5.91,-1.88 -7.96,-2.89 -0.5,-0.18 -1.01,-0.28 -1.54,-0.29 -0.51,-0.01 -1.04,0.07 -1.55,0.24l0 -0zm41.68 28.01l-26.4 -9.61c10.89,-29.91 21.77,-59.81 32.65,-89.72l28.19 10.26 -32.65 89.72 -1.79 -0.65z"/>
 </g>
</svg>
