<?xml version="1.0" encoding="UTF-8"?>
<!DOCTYPE svg PUBLIC "-//W3C//DTD SVG 1.1//EN" "http://www.w3.org/Graphics/SVG/1.1/DTD/svg11.dtd">
<!-- Creator: CorelDRAW 2018 (64-Bit) -->
<svg xmlns="http://www.w3.org/2000/svg" xml:space="preserve" width="15.1884mm" height="15.1883mm" version="1.1" style="shape-rendering:geometricPrecision; text-rendering:geometricPrecision; image-rendering:optimizeQuality; fill-rule:evenodd; clip-rule:evenodd"
viewBox="0 0 528.66 528.66"
 xmlns:xlink="http://www.w3.org/1999/xlink">
 <defs>
  <style type="text/css">
   <![CDATA[
    .fil1 {fill:#FEFEFE}
    .fil0 {fill:url(#id0)}
   ]]>
  </style>
  <linearGradient id="id0" gradientUnits="userSpaceOnUse" x1="263.83" y1="3.84" x2="263.83" y2="526.71">
   <stop offset="0" style="stop-opacity:1; stop-color:#E09B3D"/>
   <stop offset="0.301961" style="stop-opacity:1; stop-color:#C74C4D"/>
   <stop offset="0.6" style="stop-opacity:1; stop-color:#C21975"/>
   <stop offset="1" style="stop-opacity:1; stop-color:#7024C4"/>
  </linearGradient>
 </defs>
 <g id="Слой_x0020_1">
  <metadata id="CorelCorpID_0Corel-Layer"/>
  <circle class="fil0" cx="264.33" cy="264.33" r="264.33"/>
  <g id="_344882897280">
   <g>
    <path class="fil1" d="M332.46 95.78l-136.25 0c-55.37,0 -100.43,45.05 -100.43,100.42l0 136.25c0,55.37 45.05,100.43 100.43,100.43l136.25 0c55.37,0 100.43,-45.05 100.43,-100.43l0 -136.25c0,-55.37 -45.05,-100.42 -100.43,-100.42zm66.51 236.67c0,36.73 -29.78,66.51 -66.51,66.51l-136.25 0c-36.74,0 -66.51,-29.78 -66.51,-66.51l0 -136.25c0,-36.73 29.78,-66.51 66.51,-66.51l136.25 0c36.74,0 66.51,29.78 66.51,66.51l0 136.25 0 0z"/>
    <path class="fil1" d="M264.33 177.15c-48.08,0 -87.18,39.11 -87.18,87.18 0,48.07 39.11,87.18 87.18,87.18 48.08,0 87.18,-39.11 87.18,-87.18 0,-48.08 -39.11,-87.18 -87.18,-87.18zm0 140.46c-29.42,0 -53.27,-23.85 -53.27,-53.27 0,-29.42 23.85,-53.28 53.27,-53.28 29.42,0 53.27,23.85 53.27,53.28 0,29.42 -23.85,53.27 -53.27,53.27z"/>
    <circle class="fil1" cx="351.69" cy="177.8" r="20.89"/>
   </g>
   <g>
   </g>
   <g>
   </g>
   <g>
   </g>
   <g>
   </g>
   <g>
   </g>
   <g>
   </g>
   <g>
   </g>
   <g>
   </g>
   <g>
   </g>
   <g>
   </g>
   <g>
   </g>
   <g>
   </g>
   <g>
   </g>
   <g>
   </g>
   <g>
   </g>
  </g>
 </g>
</svg>
