<?xml version="1.0" encoding="UTF-8"?>
<!DOCTYPE svg PUBLIC "-//W3C//DTD SVG 1.1//EN" "http://www.w3.org/Graphics/SVG/1.1/DTD/svg11.dtd">
<!-- Creator: CorelDRAW 2018 (64-Bit) -->
<svg xmlns="http://www.w3.org/2000/svg" xml:space="preserve" width="12.0369mm" height="12.0544mm" version="1.1" style="shape-rendering:geometricPrecision; text-rendering:geometricPrecision; image-rendering:optimizeQuality; fill-rule:evenodd; clip-rule:evenodd"
viewBox="0 0 46.14 46.21"
 xmlns:xlink="http://www.w3.org/1999/xlink">
 <defs>
  <style type="text/css">
   <![CDATA[
    .fil0 {fill:black}
   ]]>
  </style>
 </defs>
 <g id="Слой_x0020_1">
  <metadata id="CorelCorpID_0Corel-Layer"/>
  <g id="_345178947056">
   <g>
    <g>
     <path class="fil0" d="M36.48 28.62c-0.95,-0.99 -2.09,-1.51 -3.3,-1.51 -1.2,0 -2.35,0.52 -3.34,1.5l-3.08 3.07c-0.25,-0.14 -0.51,-0.26 -0.75,-0.39 -0.35,-0.18 -0.68,-0.34 -0.97,-0.52 -2.89,-1.83 -5.51,-4.22 -8.03,-7.31 -1.22,-1.54 -2.04,-2.84 -2.63,-4.15 0.8,-0.73 1.54,-1.49 2.26,-2.22 0.27,-0.27 0.55,-0.56 0.82,-0.83 2.05,-2.05 2.05,-4.7 0,-6.75l-2.66 -2.66c-0.3,-0.3 -0.61,-0.61 -0.91,-0.93 -0.59,-0.6 -1.2,-1.23 -1.83,-1.81 -0.95,-0.94 -2.08,-1.43 -3.27,-1.43 -1.19,0 -2.34,0.5 -3.32,1.43 -0.01,0.01 -0.01,0.01 -0.02,0.02l-3.32 3.35c-1.25,1.25 -1.96,2.77 -2.12,4.53 -0.23,2.85 0.6,5.5 1.25,7.24 1.58,4.26 3.94,8.21 7.46,12.44 4.27,5.1 9.41,9.13 15.28,11.97 2.24,1.06 5.24,2.32 8.58,2.54 0.2,0.01 0.42,0.02 0.61,0.02 2.25,0 4.14,-0.81 5.63,-2.42 0.01,-0.02 0.03,-0.03 0.04,-0.05 0.51,-0.61 1.09,-1.17 1.71,-1.77 0.42,-0.4 0.85,-0.82 1.27,-1.26 0.97,-1 1.47,-2.17 1.47,-3.37 0,-1.21 -0.52,-2.37 -1.5,-3.35l-5.35 -5.37zm3.49 10.27c-0.01,0 -0.01,0.01 0,0 -0.38,0.41 -0.77,0.78 -1.19,1.19 -0.63,0.6 -1.28,1.24 -1.88,1.95 -0.99,1.05 -2.15,1.55 -3.67,1.55 -0.15,0 -0.3,0 -0.45,-0.01 -2.9,-0.19 -5.59,-1.32 -7.61,-2.28 -5.52,-2.67 -10.37,-6.47 -14.39,-11.27 -3.33,-4.01 -5.55,-7.71 -7.02,-11.69 -0.91,-2.43 -1.24,-4.32 -1.09,-6.1 0.1,-1.14 0.54,-2.09 1.35,-2.9l3.33 -3.33c0.48,-0.45 0.98,-0.69 1.48,-0.69 0.61,0 1.11,0.37 1.42,0.68 0.01,0.01 0.02,0.02 0.03,0.03 0.59,0.56 1.16,1.13 1.76,1.75 0.3,0.31 0.61,0.62 0.93,0.95l2.66 2.66c1.03,1.03 1.03,1.99 0,3.02 -0.28,0.28 -0.56,0.57 -0.84,0.84 -0.82,0.84 -1.6,1.62 -2.45,2.38 -0.02,0.02 -0.04,0.03 -0.05,0.05 -0.84,0.84 -0.68,1.66 -0.51,2.21 0.01,0.03 0.02,0.06 0.03,0.09 0.69,1.68 1.67,3.26 3.15,5.14l0.01 0.01c2.69,3.32 5.53,5.9 8.66,7.88 0.4,0.25 0.81,0.46 1.2,0.65 0.35,0.18 0.68,0.34 0.97,0.52 0.04,0.02 0.08,0.05 0.12,0.07 0.33,0.17 0.64,0.24 0.97,0.24 0.81,0 1.32,-0.51 1.48,-0.67l3.34 -3.34c0.33,-0.33 0.86,-0.73 1.47,-0.73 0.6,0 1.1,0.38 1.4,0.71 0.01,0.01 0.01,0.01 0.02,0.02l5.37 5.37c1,1 1,2.02 0.01,3.05z"/>
     <path class="fil0" d="M24.94 10.99c2.56,0.43 4.88,1.64 6.73,3.49 1.85,1.85 3.05,4.17 3.49,6.73 0.11,0.64 0.66,1.09 1.3,1.09 0.08,0 0.15,-0.01 0.22,-0.02 0.72,-0.12 1.2,-0.8 1.08,-1.52 -0.53,-3.09 -1.99,-5.91 -4.22,-8.14 -2.23,-2.23 -5.05,-3.7 -8.14,-4.22 -0.72,-0.12 -1.39,0.36 -1.52,1.07 -0.13,0.71 0.34,1.4 1.06,1.52z"/>
     <path class="fil0" d="M46.12 20.38c-0.87,-5.09 -3.27,-9.72 -6.95,-13.41 -3.69,-3.69 -8.32,-6.09 -13.41,-6.95 -0.71,-0.13 -1.38,0.36 -1.51,1.07 -0.12,0.72 0.36,1.39 1.08,1.52 4.54,0.77 8.69,2.93 11.99,6.21 3.3,3.3 5.44,7.44 6.21,11.99 0.11,0.64 0.66,1.09 1.3,1.09 0.08,0 0.15,-0.01 0.22,-0.02 0.71,-0.11 1.2,-0.79 1.07,-1.5z"/>
    </g>
   </g>
   <g>
   </g>
   <g>
   </g>
   <g>
   </g>
   <g>
   </g>
   <g>
   </g>
   <g>
   </g>
   <g>
   </g>
   <g>
   </g>
   <g>
   </g>
   <g>
   </g>
   <g>
   </g>
   <g>
   </g>
   <g>
   </g>
   <g>
   </g>
   <g>
   </g>
  </g>
 </g>
</svg>
