<?xml version="1.0" encoding="UTF-8"?>
<!DOCTYPE svg PUBLIC "-//W3C//DTD SVG 1.1//EN" "http://www.w3.org/Graphics/SVG/1.1/DTD/svg11.dtd">
<!-- Creator: CorelDRAW 2018 (64-Bit) -->
<svg xmlns="http://www.w3.org/2000/svg" xml:space="preserve" width="15.1883mm" height="15.1883mm" version="1.1" style="shape-rendering:geometricPrecision; text-rendering:geometricPrecision; image-rendering:optimizeQuality; fill-rule:evenodd; clip-rule:evenodd"
viewBox="0 0 6098.57 6098.57"
 xmlns:xlink="http://www.w3.org/1999/xlink">
 <defs>
  <style type="text/css">
   <![CDATA[
    .fil0 {fill:red}
    .fil1 {fill:white}
   ]]>
  </style>
 </defs>
 <g id="Слой_x0020_1">
  <metadata id="CorelCorpID_0Corel-Layer"/>
  <g id="_345180013168">
   <circle class="fil0" cx="3049.28" cy="3049.3" r="3049.29"/>
   <g>
    <path class="fil1" d="M3511.51 3883.44c-0.16,-22.2 -6.67,-45.29 -14.9,-66.09 -11,-27.26 -34.49,-40.88 -64,-43.73 -34.61,-3.41 -62.32,10.56 -87.37,32.76 -10.08,8.75 -14.62,21.8 -14.62,21.8l0.52 704.89 0 17.39c0,0 5.98,8.07 6.91,9.15 20.36,22.04 44.13,39.55 74.56,45.81 50.15,10.32 85.57,-10.56 95.36,-57.06 2.49,-11.64 3.89,-23.65 3.89,-35.54 0.28,-209.88 0.64,-419.64 -0.36,-629.4zm0 0c-0.16,-22.2 -6.67,-45.29 -14.9,-66.09 -11,-27.26 -34.49,-40.88 -64,-43.73 -34.61,-3.41 -62.32,10.56 -87.37,32.76 -10.08,8.75 -14.62,21.8 -14.62,21.8l0.52 704.89 0 17.39c0,0 5.98,8.07 6.91,9.15 20.36,22.04 44.13,39.55 74.56,45.81 50.15,10.32 85.57,-10.56 95.36,-57.06 2.49,-11.64 3.89,-23.65 3.89,-35.54 0.28,-209.88 0.64,-419.64 -0.36,-629.4zm789.21 -1062.97c-834.14,-17.91 -1668.72,-17.91 -2503.02,0 -289.42,6.14 -520.87,242.77 -520.87,532.35l0 1302.89c0,289.7 231.44,526.37 520.87,532.51 834.3,17.87 1668.88,17.87 2503.02,0 289.58,-6.14 520.99,-242.81 520.99,-532.51l0 -1302.89c0,-289.54 -231.4,-526.21 -520.99,-532.35zm-2258.01 1953.97l-240.6 0 0 -1359.98 -249.07 0 0 -227.51 739.26 0 0 226.99 -249.59 0 0 1360.51zm860.92 -564.47l0 564.59 -213.01 0 0 -129.01c-7.71,8.23 -12.01,12.65 -16.06,17.23 -45.81,51.72 -97.81,94.84 -164.15,117.69 -32.4,11.08 -65.69,14.9 -99.78,8.99 -46.5,-7.71 -77.74,-34.45 -96.53,-76.77 -17.51,-39.07 -21.96,-80.87 -22.08,-122.91 -0.52,-155.43 -0.24,-977.97 -0.24,-985.96l212.49 0c0.36,7.19 1.16,597.68 1.28,885.66 0,15.66 0.16,31.72 3.29,47.02 7.83,38.67 37.46,55.25 74.68,41.64 42.84,-15.66 75.49,-45.17 102.91,-80.59 4.06,-5.06 4.06,-14.21 4.06,-21.52l0 -873.49 213.13 -0.52c0,0 0,412.29 0,607.96zm810.41 451.76c-28.47,85.69 -91.15,129.29 -181.25,128.37 -73.28,-0.64 -132.71,-29.75 -181.69,-82.92 -5.46,-5.86 -20.64,-21.92 -20.64,-21.92l0 89.06 -213.41 0 0 -1587.53 213.41 0c0,169 0,522.55 0,522.55 0,0 12.01,-24.01 23.01,-36.42 33.05,-36.98 73.28,-65.57 122.87,-78.1 81.91,-20.52 176.35,4.82 221.28,100.54 26.5,56.58 33.93,116.89 33.93,178.28 0.4,221.93 0.4,443.81 0.16,665.7 -0.16,41.56 -4.46,82.55 -17.67,122.39zm788.2 -44.65c-36.94,108.25 -113.35,168.36 -225.42,184.82 -69.46,10.16 -138.29,8.71 -203.46,-20.8 -89.22,-40.23 -139.77,-112.95 -161.46,-205.54 -10.04,-43.12 -15.02,-88.3 -15.54,-132.59 -1.69,-173.82 -0.92,-347.81 -0.52,-521.63 0.12,-90.91 21.8,-174.75 84.12,-244.37 71.03,-79.54 161.94,-109.18 265.77,-102.51 31.2,1.93 63.08,7.03 92.75,16.82 100.94,33.17 154.87,108.81 176.03,209.12 8.11,38.67 11.12,78.74 11.76,118.33 1.69,92.71 -0.64,297.13 -0.64,297.13l-408.68 0 0 292.96c0,52.6 42.56,95.2 95.2,95.2 52.52,0 95.08,-42.6 95.08,-95.2l0 -150.61 219.56 0c0,0 3.25,177.76 -24.57,258.87zm-194.98 -747.33c0,-52.52 -42.56,-95.2 -95.08,-95.2 -52.64,0 -95.2,42.68 -95.2,95.2l0 164.43 190.29 0 0 -164.43zm-810.65 -52.36c-11,-27.3 -34.49,-40.88 -64,-43.77 -34.61,-3.37 -62.32,10.6 -87.37,32.76 -10.08,8.75 -14.62,21.84 -14.62,21.84l0.52 704.85 0 17.39c0,0 5.98,8.11 6.91,9.15 20.36,22.04 44.13,39.55 74.56,45.81 50.15,10.32 85.57,-10.56 95.36,-57.06 2.49,-11.6 3.89,-23.65 3.89,-35.54 0.28,-209.88 0.64,-419.64 -0.36,-629.36 -0.16,-22.24 -6.67,-45.33 -14.9,-66.09z"/>
    <path class="fil1" d="M4042.13 1313.89l-0.08 1178.61 -218.39 0 0.24 -126.6c-24.13,23.77 -44.73,45.98 -67.38,65.93 -40.15,35.37 -85.65,61.76 -138.85,72.16 -81.67,15.98 -151.22,-9.84 -177.28,-94.44 -8.67,-28.15 -13.89,-58.54 -14.13,-87.94l0 -1007.72 216.79 0 0 898.83c0,11.93 0.92,23.93 3.01,35.62 6.59,37.06 33.97,54.49 69.63,42.12 43.49,-15.06 76.65,-45.17 104.8,-80.63 4.02,-5.06 3.29,-14.54 3.29,-21.96l0 -873.97 218.35 0z"/>
    <path class="fil1" d="M2235.72 1518.67c-47.42,-199.84 -146.76,-621.69 -146.76,-621.69l-248.51 0c0,0 190.93,633.25 276.33,915.69 3.05,10.2 4.5,21.28 4.5,32l-0.12 647.59 229.19 0 -0.08 -647.59c0,-10.72 1.41,-21.8 4.46,-32 85.41,-282.44 276.33,-915.69 276.33,-915.69l-248.51 0c0,0 -99.34,421.85 -146.76,621.69l-0.08 0z"/>
    <path class="fil1" d="M2930.21 1284.38l0 0c-172.74,0 -312.75,140.01 -312.75,312.71l0 612.01c0,172.7 140.01,312.71 312.75,312.71l0 0c172.7,0 312.71,-140.01 312.71,-312.71l0 -612.01c0,-172.7 -140.01,-312.71 -312.71,-312.71zm90.22 937.09c0,49.75 -40.47,90.22 -90.22,90.22 -49.75,0 -90.22,-40.47 -90.22,-90.22l0 -636.75c0,-49.75 40.47,-90.22 90.22,-90.22 49.75,0 90.22,40.47 90.22,90.22l0 636.75z"/>
   </g>
  </g>
 </g>
</svg>
