<?xml version="1.0" encoding="UTF-8"?>
<!DOCTYPE svg PUBLIC "-//W3C//DTD SVG 1.1//EN" "http://www.w3.org/Graphics/SVG/1.1/DTD/svg11.dtd">
<!-- Creator: CorelDRAW 2018 (64-Bit) -->
<svg xmlns="http://www.w3.org/2000/svg" xml:space="preserve" width="15.1883mm" height="15.1883mm" version="1.1" style="shape-rendering:geometricPrecision; text-rendering:geometricPrecision; image-rendering:optimizeQuality; fill-rule:evenodd; clip-rule:evenodd"
viewBox="0 0 275.31 275.31"
 xmlns:xlink="http://www.w3.org/1999/xlink">
 <defs>
  <style type="text/css">
   <![CDATA[
    .fil1 {fill:#FEFEFE}
    .fil0 {fill:#44629E}
   ]]>
  </style>
 </defs>
 <g id="Слой_x0020_1">
  <metadata id="CorelCorpID_0Corel-Layer"/>
  <circle class="fil0" cx="137.65" cy="137.65" r="137.65"/>
  <path class="fil1" d="M201.27 145.92c-3.12,-3.94 -2.23,-5.69 0,-9.21 0.04,-0.04 25.78,-35.61 28.44,-47.68l0.02 -0.01c1.32,-4.4 0,-7.63 -6.38,-7.63l-21.09 0c-5.37,0 -7.85,2.77 -9.17,5.87 0,0 -10.74,25.7 -25.93,42.37 -4.9,4.81 -7.17,6.36 -9.85,6.36 -1.32,0 -3.37,-1.54 -3.37,-5.94l0 -41.03c0,-5.27 -1.5,-7.63 -5.95,-7.63l-33.16 0c-3.37,0 -5.37,2.46 -5.37,4.75 0,5 7.59,6.15 8.38,20.21l0 30.52c0,6.69 -1.21,7.92 -3.91,7.92 -7.17,0 -24.57,-25.81 -34.88,-55.35 -2.08,-5.73 -4.11,-8.05 -9.52,-8.05l-21.1 0c-6.02,0 -7.23,2.77 -7.23,5.88 0,5.48 7.17,32.74 33.34,68.74 17.44,24.58 42,37.9 64.35,37.9 13.43,0 15.07,-2.96 15.07,-8.05 0,-23.48 -1.21,-25.7 5.51,-25.7 3.12,0 8.49,1.54 21.03,13.4 14.33,14.06 16.69,20.35 24.71,20.35l21.09 0c6.01,0 9.06,-2.96 7.3,-8.79 -4.01,-12.27 -31.11,-37.52 -32.33,-39.21z"/>
 </g>
</svg>
